<svg width="13" height="14" fill="none" xmlns="http://www.w3.org/2000/svg"><path fill-rule="evenodd" clip-rule="evenodd" d="M3.8 3.9c.4 0 .7-.3.7-.7V.7c0-.4-.4-.7-.7-.7-.3 0-.7.3-.7.7v2.5c0 .4.3.7.7.7zm4.7 0c.4 0 .7-.3.7-.7V.7c0-.4-.4-.7-.7-.7-.4 0-.7.3-.7.7v2.5c0 .4.3.7.7.7zM5.2 1.8h1.9v1.4H5.2V1.8zm4.9 0h-.2v1.4h.2c.4 0 .7.3.7.7v8c0 .4-.3.7-.7.7h-8c-.4 0-.7-.3-.7-.7v-8c0-.4.3-.7.7-.7h.2V1.8h-.2C.9 1.8 0 2.7 0 3.9v8C0 13.1.9 14 2.1 14h8c1.2 0 2.1-.9 2.1-2.1v-8c0-1.2-.9-2.1-2.1-2.1zm-3.9 9.1H3.7c-.4 0-.6-.3-.6-.7V7.7c0-.4.2-.7.6-.7h2.5c.4 0 .7.3.7.7v2.5c0 .4-.3.7-.7.7z" fill="#B2BECA"/></svg>