<svg width="20" height="20" fill="none" xmlns="http://www.w3.org/2000/svg"><path fill-rule="evenodd" clip-rule="evenodd" d="M9.411 13.092c-.029-.01-.053-.035-.11-.092L5.1 8.7c-.4-.4-.4-1 0-1.4.399-.4 1-.4 1.399 0L9 9.9V1c0-.6.4-1 1-1s1 .4 1 1v8.9l2.6-2.7c.4-.4 1-.4 1.4 0 .4.4.4 1 0 1.4L10.8 13l-.1.1c-.05 0-.075.025-.1.05-.025.025-.05.05-.1.05-.1.1-.3.1-.4.1a.65.65 0 01-.269-.063.358.358 0 00-.131-.037c-.05 0-.075-.025-.1-.05-.025-.025-.05-.05-.1-.05-.042 0-.067 0-.089-.008zM1 18h18c.5 0 1 .4 1 1s-.4 1-1 1H1c-.6 0-1-.4-1-1s.4-1 1-1z" fill="#38B4FA"/></svg>