<svg width="20" height="20" fill="none" xmlns="http://www.w3.org/2000/svg"><path d="M1.864 17.606a6.342 6.342 0 004.5 1.861c1.629 0 3.259-.62 4.5-1.86l7.807-7.808a4.55 4.55 0 000-6.428 4.515 4.515 0 00-3.214-1.332 4.516 4.516 0 00-3.214 1.332l-7.165 7.165a2.73 2.73 0 000 3.856 2.73 2.73 0 003.857 0l4.718-4.718a.91.91 0 00-1.286-1.285L7.65 13.107a.91.91 0 01-1.286-1.286l7.165-7.165a2.71 2.71 0 011.929-.799 2.71 2.71 0 011.928.8 2.73 2.73 0 010 3.856l-7.807 7.808a4.55 4.55 0 01-6.429 0 4.515 4.515 0 01-1.33-3.214c0-1.214.472-2.356 1.33-3.214l7.808-7.808A.91.91 0 009.672.799L1.864 8.607A6.322 6.322 0 000 13.107c0 1.7.662 3.297 1.864 4.5z" fill="#B2BECA"/></svg>