<svg width="36" height="36" fill="none" xmlns="http://www.w3.org/2000/svg"><circle cx="18" cy="18" r="18" fill="#E7F1FF"/><path fill-rule="evenodd" clip-rule="evenodd" d="M22.6 13.9c1.5 0 2.8-1.3 2.8-3s-1.2-3-2.8-3c-1.5 0-2.8 1.3-2.8 3s1.2 3 2.8 3zM19.2 16c0 2.43-1.836 4.4-4.1 4.4-2.264 0-4.1-1.97-4.1-4.4 0-2.43 1.836-4.4 4.1-4.4 2.264 0 4.1 1.97 4.1 4.4zm-1 5h.5c1.9 0 3.4 1.6 3.5 3.5v1.9c0 .9-.7 1.6-1.6 1.6h-11c-.9 0-1.6-.7-1.6-1.6v-1.9c0-1.9 1.6-3.5 3.5-3.5h.5c.3 0 .6.1.9.2.6.3 1.4.5 2.2.5.8 0 1.5-.2 2.2-.5.3-.1.6-.2.9-.2zm6.4-6.7h.3c1.3 0 2.3 1 2.3 2.3v1.2c0 .6-.5 1.1-1.1 1.1h-5.8c.4-.8.7-1.8.7-2.9 0-.6-.1-1.2-.2-1.7 0 0 .1.1.2.1.5.2 1 .3 1.5.3s1-.1 1.5-.3c.1 0 .2-.025.3-.05.1-.025.2-.05.3-.05z" fill="#fff"/></svg>