<svg width="108" height="25" fill="none" xmlns="http://www.w3.org/2000/svg"><path fill-rule="evenodd" clip-rule="evenodd" d="M25.167 0H0l.042 25H25.32V12.5l-12.674-.042 4.038-4.017L25.18 0h-.014zM1.45 23.597l9.805-9.756 1.383.006 11.292.028v9.722H1.45zm47.146-20.43h1.486l4.292 9.889h-1.653l-1.07-2.445h-4.666l-1.055 2.445h-1.64l4.306-9.89zm.736 1.944l-1.805 4.14h3.61l-1.805-4.14zM33.555 3.222h7.361v1.084l-5.527 7.333h5.75v1.417h-7.861v-1.098l5.527-7.32h-5.25V3.223zm32.181 0h-1.972l-4.042 4.014V3.222h-1.541v9.834h1.541V8.333l4.64 4.723h2.11l-5.291-5.334 4.555-4.5zm10.875 0h1.569v5.68c0 1.376-.375 2.445-1.152 3.21-.778.763-1.764 1.138-2.986 1.138-1.223 0-2.209-.375-2.987-1.125-.763-.764-1.138-1.833-1.138-3.222v-5.68h1.541v5.735c0 1.834 1.014 2.834 2.57 2.834 1.555 0 2.583-.986 2.583-2.834V3.222zm10.333 0h-4.236v9.834h1.542V9h2.694c1.028 0 1.834-.264 2.403-.82.597-.541.889-1.25.889-2.11 0-.848-.292-1.528-.889-2.056-.57-.528-1.375-.792-2.403-.792zm-2.68 4.347V4.64h2.555c1.167 0 1.861.514 1.861 1.458 0 .945-.694 1.472-1.86 1.472h-2.556zM99.86 3.222h1.986l-4.555 4.5 5.291 5.334h-2.111l-4.638-4.723v4.723h-1.542V3.222h1.541v4.014l4.028-4.014zm7.889 0h-1.542v9.834h1.542V3.222zm-74 15.195c.347-.39.806-.57 1.361-.57.64 0 1.125.223 1.43.68v-.569h.556v3.5c0 .584-.194 1.042-.583 1.348-.375.32-.861.472-1.444.472-.556 0-1.056-.125-1.445-.347v-.542c.43.25.903.375 1.403.375.903 0 1.528-.43 1.528-1.32v-.388c-.334.444-.806.666-1.445.666-.555 0-1.014-.18-1.36-.555a1.955 1.955 0 01-.529-1.375c0-.542.18-1 .528-1.375zm.472 2.402c.264.278.611.403 1.028.403.57 0 1.097-.333 1.32-.833v-1.222c-.209-.486-.736-.82-1.32-.82-.403 0-.75.14-1.028.417a1.382 1.382 0 00-.416 1.028c0 .416.139.75.416 1.027zm8.583-2.972c-.61 0-1.208.32-1.486.806v-.708h-.555v3.75h.555v-2.362c.153-.36.528-.708 1.028-.833a1.6 1.6 0 01.472-.07v-.583h-.014zm3.445.584c.375-.39.861-.584 1.458-.584.598 0 1.07.195 1.459.584.389.375.57.847.57 1.389 0 .541-.195 1.013-.57 1.388-.375.375-.861.57-1.459.57-.597 0-1.069-.195-1.458-.57-.389-.375-.57-.847-.57-1.388 0-.542.195-1.014.57-1.39zm.417 2.43c.277.278.625.417 1.041.417.417 0 .764-.139 1.042-.417.278-.278.417-.625.417-1.041 0-.417-.14-.764-.417-1.042a1.413 1.413 0 00-1.042-.417c-.416 0-.764.14-1.041.417a1.413 1.413 0 00-.417 1.042c0 .416.139.763.417 1.041zm9.847-2.916h-.556v2.527a1.762 1.762 0 01-.555.556 1.366 1.366 0 01-.75.236c-.459 0-1.07-.167-1.07-1.153v-2.153h-.555v2.278c0 .986.5 1.556 1.43 1.556.611 0 1.098-.223 1.5-.667v.57h.556v-3.75zm4.222.597c.347-.459.82-.695 1.445-.695.541 0 1 .195 1.36.584.348.375.528.847.528 1.389 0 .555-.18 1.027-.527 1.402-.348.375-.806.57-1.361.57-.612 0-1.098-.236-1.445-.695v2.153h-.555v-5.305h.555v.597zm-.014 1.889c.222.5.75.847 1.32.847.416 0 .764-.139 1.027-.43.278-.278.417-.626.417-1.042 0-.417-.139-.764-.417-1.042-.264-.278-.61-.417-1.027-.417-.57 0-1.098.361-1.32.848v1.236z" fill="#38B4FA"/></svg>