<svg width="12" height="13" fill="none" xmlns="http://www.w3.org/2000/svg"><path fill-rule="evenodd" clip-rule="evenodd" d="M6.445 1.87c0 .275-.22.44-.44.44-.221 0-.442-.165-.442-.386V.877c0-.276.166-.441.441-.441.276 0 .441.22.441.44v.993zm-.44 1.102a3.082 3.082 0 00-3.087 3.087c0 1.137.487 1.738.932 2.288.375.463.721.89.721 1.57h2.867c0-.712.353-1.143.733-1.606.442-.54.921-1.125.921-2.252a3.082 3.082 0 00-3.087-3.087zm-1.433 8.214a1.46 1.46 0 001.433 1.433 1.46 1.46 0 001.433-1.433v-.551H4.572v.55zm4.465-7.883c.11 0 .276-.056.331-.166l.662-.937c.11-.165.11-.441-.11-.551-.166-.11-.442-.11-.552.11l-.662.882c-.11.165-.11.441.11.551.056.11.111.11.221.11zm1.267 1.929h.937c.22 0 .441.165.441.441s-.22.441-.44.441h-.938c-.276 0-.441-.165-.441-.44 0-.277.22-.442.44-.442zM2.697 3.137c.055.11.22.166.331.166.11 0 .165 0 .22-.056a.428.428 0 00.11-.55l-.66-.993c-.111-.165-.387-.22-.552-.055a.428.428 0 00-.11.551l.661.937zM1.54 8.815l.827-.716c.166-.11.441-.11.551.11.166.22.11.441-.055.606l-.771.662-.08.043a.363.363 0 01-.196.067c-.11 0-.276-.055-.33-.165-.166-.22-.111-.441.054-.607zM9.533 8.1c-.166-.166-.441-.11-.607.055-.165.165-.11.44.055.606l.827.662c.055.055.166.11.276.11.11 0 .22-.055.33-.165.166-.166.111-.441-.054-.607L9.533 8.1zM1.76 5.232c.275 0 .44.22.44.441 0 .22-.165.386-.385.441H.878a.435.435 0 01-.441-.44c0-.221.165-.442.44-.442h.883z" fill="#FFC42C"/></svg>