<svg width="209" height="38" fill="none" xmlns="http://www.w3.org/2000/svg"><path d="M38.625 6.758c0-.432-.17-.771-.508-1.016-.338-.25-.786-.375-1.344-.375-.5 0-.916.125-1.25.375-.328.245-.492.565-.492.961h-2.343c0-.614.171-1.167.515-1.656.35-.495.841-.88 1.477-1.156a5.234 5.234 0 012.093-.414c1.313 0 2.342.28 3.086.843.745.563 1.118 1.36 1.118 2.39 0 .506-.154.975-.461 1.407-.302.432-.735.779-1.297 1.04.625.218 1.104.551 1.437 1 .334.442.5.994.5 1.655 0 1.021-.4 1.834-1.203 2.438-.797.599-1.857.898-3.18.898-.828 0-1.573-.14-2.234-.421-.661-.287-1.164-.675-1.508-1.165-.338-.494-.508-1.067-.508-1.718h2.36c0 .406.177.747.531 1.023.354.271.807.406 1.36.406.624 0 1.117-.14 1.476-.421.365-.282.547-.639.547-1.07 0-.595-.162-1.019-.484-1.274-.323-.26-.795-.39-1.415-.39H35.5V8.28h1.445c1.12-.015 1.68-.523 1.68-1.523zM47.641 15a2.507 2.507 0 01-.227-.758c-.547.61-1.258.914-2.133.914-.828 0-1.515-.24-2.062-.719a2.316 2.316 0 01-.813-1.812c0-.896.331-1.583.992-2.063.667-.479 1.628-.72 2.883-.726h1.04v-.484c0-.391-.102-.704-.305-.938-.198-.234-.513-.351-.946-.351-.38 0-.68.09-.898.273-.214.182-.32.432-.32.75h-2.258c0-.49.15-.943.453-1.36.302-.416.729-.742 1.281-.976.552-.24 1.172-.36 1.86-.36 1.041 0 1.867.264 2.476.79.615.52.922 1.255.922 2.203v3.664c.005.802.117 1.409.336 1.82V15H47.64zm-1.868-1.57c.334 0 .641-.073.922-.22.282-.15.49-.35.625-.6v-1.454h-.843c-1.13 0-1.732.39-1.805 1.172l-.008.133c0 .281.099.513.297.695.198.182.469.274.812.274zM58.672 15h-2.266V8.375h-2.828V15H51.32V6.547h7.352V15zm9.336-4.148c0 1.302-.297 2.346-.89 3.132-.59.782-1.386 1.172-2.391 1.172-.855 0-1.545-.297-2.07-.89v3.984h-2.259V6.547h2.094l.078.828c.547-.656 1.26-.984 2.14-.984 1.043 0 1.853.385 2.43 1.156.579.77.868 1.833.868 3.187v.118zm-2.258-.165c0-.786-.14-1.393-.422-1.82-.276-.427-.68-.64-1.21-.64-.71 0-1.196.27-1.462.812V12.5c.276.557.769.836 1.477.836 1.078 0 1.617-.883 1.617-2.649zm3.313.008c0-.838.161-1.586.484-2.242a3.553 3.553 0 011.39-1.523c.61-.36 1.316-.54 2.118-.54 1.14 0 2.07.35 2.789 1.048.724.697 1.127 1.645 1.21 2.843l.016.578c0 1.297-.362 2.339-1.086 3.125-.724.782-1.695 1.172-2.914 1.172-1.218 0-2.192-.39-2.922-1.172-.724-.78-1.085-1.843-1.085-3.187v-.102zm2.257.164c0 .803.151 1.417.453 1.844.303.422.735.633 1.297.633.547 0 .974-.208 1.282-.625.307-.422.46-1.094.46-2.016 0-.786-.153-1.396-.46-1.828-.308-.432-.74-.648-1.297-.648-.552 0-.98.216-1.282.648-.302.427-.453 1.091-.453 1.992zm10.657 2.477c.416 0 .755-.115 1.015-.344.26-.229.396-.534.406-.914h2.118a2.915 2.915 0 01-.47 1.578 3.115 3.115 0 01-1.265 1.11c-.531.26-1.12.39-1.765.39-1.209 0-2.162-.383-2.86-1.148-.698-.771-1.047-1.833-1.047-3.188v-.148c0-1.302.347-2.341 1.04-3.117C79.84 6.779 80.791 6.39 82 6.39c1.057 0 1.904.302 2.54.906.64.599.965 1.398.976 2.398h-2.118c-.01-.437-.145-.791-.406-1.062-.26-.276-.604-.414-1.031-.414-.526 0-.924.192-1.195.578-.266.38-.399 1-.399 1.86v.234c0 .87.133 1.494.399 1.875.265.38.669.57 1.21.57zM98.14 15h-2.266V8.375h-2.828V15h-2.258V6.547h7.352V15zm9.336-4.148c0 1.302-.297 2.346-.891 3.132-.589.782-1.385 1.172-2.391 1.172-.854 0-1.544-.297-2.07-.89v3.984h-2.258V6.547h2.094l.078.828c.547-.656 1.26-.984 2.141-.984 1.041 0 1.851.385 2.429 1.156.579.77.868 1.833.868 3.187v.118zm-2.258-.165c0-.786-.141-1.393-.422-1.82-.276-.427-.68-.64-1.211-.64-.708 0-1.195.27-1.461.812V12.5c.276.557.768.836 1.477.836 1.078 0 1.617-.883 1.617-2.649zm7.554 4.47c-1.239 0-2.25-.381-3.031-1.141-.776-.76-1.164-1.774-1.164-3.04v-.218c0-.85.164-1.607.492-2.274.328-.671.792-1.187 1.391-1.546.604-.365 1.292-.547 2.062-.547 1.157 0 2.066.364 2.727 1.093.667.73 1 1.763 1 3.102v.922h-5.383c.073.552.292.995.656 1.328.37.333.836.5 1.399.5.87 0 1.549-.315 2.039-.945l1.109 1.242a3.419 3.419 0 01-1.375 1.125 4.546 4.546 0 01-1.922.398zm-.257-6.938c-.448 0-.813.15-1.094.453-.276.302-.453.734-.531 1.297h3.14v-.18c-.01-.5-.146-.885-.406-1.156-.26-.276-.63-.414-1.109-.414zm5.14 4.96c.511-.541.857-1.077 1.039-1.609.183-.53.284-1.284.305-2.258l.062-2.765h6.219v6.633h1.219v4.36h-2.258V15h-5.008v2.54h-2.304v-4.36h.726zm2.664 0h2.711V8.415h-1.758l-.015 1.016c-.047 1.552-.36 2.802-.938 3.75zM135 6.548V15h-2.258V8.375h-1.992l-.141 2.61c-.088 1.39-.362 2.403-.82 3.038-.458.636-1.141.961-2.047.977h-.765l-.024-1.836.281-.023c.407-.032.704-.271.891-.72.187-.447.305-1.21.352-2.288l.156-3.586H135zm1.391 4.148c0-.838.161-1.586.484-2.242a3.55 3.55 0 011.391-1.523c.609-.36 1.315-.54 2.117-.54 1.14 0 2.07.35 2.789 1.048.724.697 1.127 1.645 1.211 2.843l.015.578c0 1.297-.362 2.339-1.086 3.125-.723.782-1.695 1.172-2.914 1.172-1.218 0-2.192-.39-2.921-1.172-.724-.78-1.086-1.843-1.086-3.187v-.102zm2.257.164c0 .803.151 1.417.454 1.844.302.422.734.633 1.296.633.547 0 .974-.208 1.282-.625.307-.422.461-1.094.461-2.016 0-.786-.154-1.396-.461-1.828-.308-.432-.74-.648-1.297-.648-.552 0-.979.216-1.281.648-.303.427-.454 1.091-.454 1.992zm15.102 1.008h-1.023V15h-2.258v-3.133h-1.008L147.781 15h-2.726l2.664-4.422-2.633-4.031h2.797l1.758 3.156h.828V6.547h2.258v3.156h.843l1.766-3.156h2.797l-2.617 3.976L158.203 15h-2.773l-1.68-3.133zm9.273 3.29c-1.239 0-2.25-.381-3.031-1.141-.776-.76-1.164-1.774-1.164-3.04v-.218c0-.85.164-1.607.492-2.274.328-.671.792-1.187 1.391-1.546.604-.365 1.292-.547 2.062-.547 1.157 0 2.066.364 2.727 1.093.667.73 1 1.763 1 3.102v.922h-5.383c.073.552.292.995.656 1.328.37.333.836.5 1.399.5.87 0 1.549-.315 2.039-.945l1.109 1.242a3.419 3.419 0 01-1.375 1.125 4.546 4.546 0 01-1.922.398zm-.257-6.938c-.448 0-.813.15-1.094.453-.276.302-.453.734-.531 1.297h3.14v-.18c-.01-.5-.146-.885-.406-1.156-.26-.276-.63-.414-1.109-.414zM175.117 15h-2.265v-3.25h-2.805V15h-2.258V6.547h2.258v3.39h2.805v-3.39h2.265V15zm6.844-8.453h2.258V15h-2.258V9.781L179.133 15h-2.266V6.547h2.266v5.21l2.828-5.21zm9.078 0h2.258V15h-2.258V9.781L188.211 15h-2.266V6.547h2.266v5.21l2.828-5.21zm1.328-3.43c0 .693-.25 1.253-.75 1.68-.495.427-1.146.64-1.953.64-.807 0-1.461-.21-1.961-.632-.495-.422-.742-.985-.742-1.688h1.601c0 .328.097.584.29.766.197.177.468.265.812.265.339 0 .604-.088.797-.265.193-.182.289-.438.289-.766h1.617z" fill="#fff"/><path d="M15.778 22.838c.525 0 1.05.132 1.574.132 2.36 0 4.196-.657 5.507-2.101 2.623-2.758 2.098-7.091 2.098-7.223-.13-.656-.655-1.181-1.311-1.181h-4.59v-1.839c.525-.131.918-.656.918-1.313 0-.788-.655-1.313-1.311-1.313H6.206c-.787 0-1.311.657-1.311 1.313 0 .657.393 1.05.917 1.313v1.839H1.354c-.656 0-1.311.525-1.311 1.181 0 .132-.525 4.596 2.098 7.223 1.311 1.313 3.147 2.1 5.507 2.1.525 0 1.05 0 1.574-.13a10.48 10.48 0 001.836 1.181c-.131 1.05-.656 4.859-2.885 7.354H6.206c-.787 0-1.311.656-1.311 1.313 0 .788.655 1.313 1.31 1.313h12.458c.787 0 1.311-.657 1.311-1.313 0-.788-.655-1.313-1.311-1.313h-1.836c-2.229-2.495-2.754-6.303-2.885-7.354a10.47 10.47 0 001.836-1.182zm6.557-7.747c0 1.05-.263 2.758-1.443 3.808-.787.788-1.836 1.182-3.278 1.182.131-.263.262-.657.524-1.05.394-1.182.656-2.496.787-4.071h3.41v.13zM3.977 18.899c-1.05-1.05-1.312-2.758-1.443-3.808h3.41c.13 1.576.393 2.889.786 4.07.131.395.263.657.525 1.051-1.443-.131-2.492-.525-3.278-1.313z" fill="#FFE666"/><path d="M40.188 27.648a2.65 2.65 0 01-.415 1.47 2.98 2.98 0 01-1.14 1.023c.552.265.99.632 1.312 1.101.323.464.485 1.01.485 1.64 0 1.011-.344 1.81-1.032 2.4-.687.583-1.622.874-2.804.874-1.183 0-2.12-.294-2.813-.883-.692-.588-1.039-1.385-1.039-2.39 0-.63.162-1.18.485-1.649a3.239 3.239 0 011.304-1.093 2.98 2.98 0 01-1.14-1.024 2.684 2.684 0 01-.407-1.469c0-.968.323-1.74.97-2.312.645-.578 1.523-.867 2.632-.867 1.104 0 1.98.286 2.625.86.651.567.977 1.34.977 2.32zm-2.024 5.07c0-.494-.143-.89-.43-1.187-.286-.297-.672-.445-1.156-.445-.479 0-.862.148-1.148.445-.287.292-.43.688-.43 1.188 0 .484.14.875.422 1.172.281.297.672.445 1.172.445.49 0 .872-.143 1.148-.43.281-.286.422-.682.422-1.187zm-.234-4.96c0-.443-.117-.797-.352-1.063-.234-.27-.565-.406-.992-.406-.422 0-.75.13-.984.39-.235.261-.352.62-.352 1.079 0 .453.117.818.352 1.094.234.276.565.414.992.414.427 0 .755-.138.984-.414.234-.276.352-.641.352-1.094zm4.367 2.648l.656-5.781h6.375v1.883h-4.523l-.282 2.445a3.58 3.58 0 011.711-.43c1.084 0 1.933.336 2.547 1.008.615.672.922 1.612.922 2.82 0 .735-.156 1.394-.469 1.977a3.287 3.287 0 01-1.328 1.352c-.578.317-1.26.476-2.047.476a4.452 4.452 0 01-1.914-.414 3.452 3.452 0 01-1.398-1.18 3.222 3.222 0 01-.54-1.726h2.235c.047.474.211.844.492 1.11.287.26.66.39 1.118.39.51 0 .903-.182 1.18-.547.275-.37.413-.89.413-1.562 0-.646-.159-1.141-.476-1.485-.318-.344-.769-.515-1.352-.515-.536 0-.971.14-1.304.421l-.22.204-1.796-.446zm14.133 1.047c-.589.578-1.276.867-2.063.867-1.005 0-1.81-.343-2.414-1.03-.604-.694-.906-1.626-.906-2.798 0-.745.161-1.427.484-2.047a3.576 3.576 0 011.367-1.453 3.76 3.76 0 011.97-.523c.75 0 1.416.187 2 .562.582.375 1.036.914 1.359 1.617.323.704.487 1.508.492 2.415v.835c0 1.896-.472 3.386-1.414 4.47-.943 1.082-2.279 1.66-4.008 1.734l-.555.007v-1.882l.5-.008c1.964-.089 3.026-1.01 3.188-2.766zm-1.508-.86c.364 0 .677-.093.937-.28a1.88 1.88 0 00.602-.68v-.93c0-.765-.146-1.36-.438-1.781-.291-.422-.682-.633-1.171-.633-.454 0-.826.208-1.118.625-.291.412-.437.93-.437 1.555 0 .62.14 1.13.422 1.531.286.396.687.594 1.203.594zm5.625 4.298c0-.36.12-.651.36-.875.244-.224.549-.336.913-.336.37 0 .675.112.914.336.245.224.368.515.368.875 0 .354-.12.643-.36.867-.24.219-.547.328-.922.328-.37 0-.674-.11-.914-.328-.24-.224-.36-.513-.36-.867zm9.726-3.438c-.588.578-1.276.867-2.062.867-1.005 0-1.81-.343-2.414-1.03-.604-.694-.906-1.626-.906-2.798 0-.745.161-1.427.484-2.047a3.575 3.575 0 011.367-1.453 3.76 3.76 0 011.969-.523c.75 0 1.417.187 2 .562.583.375 1.036.914 1.36 1.617.322.704.486 1.508.492 2.415v.835c0 1.896-.472 3.386-1.415 4.47-.942 1.082-2.278 1.66-4.007 1.734l-.555.007v-1.882l.5-.008c1.963-.089 3.026-1.01 3.187-2.766zm-1.507-.86c.364 0 .677-.093.937-.28a1.88 1.88 0 00.602-.68v-.93c0-.765-.146-1.36-.438-1.781-.291-.422-.682-.633-1.172-.633-.453 0-.825.208-1.117.625-.291.412-.437.93-.437 1.555 0 .62.14 1.13.421 1.531.287.396.688.594 1.204.594zm13.07.704c0 1.573-.326 2.776-.977 3.61-.65.833-1.604 1.25-2.859 1.25-1.24 0-2.188-.41-2.844-1.227-.656-.818-.992-1.99-1.008-3.516V29.32c0-1.588.329-2.794.985-3.617.661-.823 1.612-1.234 2.851-1.234 1.24 0 2.188.409 2.844 1.226.656.813.992 1.982 1.008 3.508v2.094zM79.578 29c0-.943-.13-1.628-.39-2.055-.256-.432-.657-.648-1.204-.648-.53 0-.924.206-1.18.617-.25.406-.382 1.044-.398 1.914v2.766c0 .927.125 1.617.375 2.07.255.448.662.672 1.219.672.552 0 .95-.216 1.195-.648.245-.433.373-1.094.383-1.985V29zm11.445 2.297c0 1.573-.325 2.776-.976 3.61-.651.833-1.604 1.25-2.86 1.25-1.24 0-2.187-.41-2.843-1.227-.656-.818-.992-1.99-1.008-3.516V29.32c0-1.588.328-2.794.984-3.617.662-.823 1.612-1.234 2.852-1.234 1.24 0 2.187.409 2.844 1.226.656.813.992 1.982 1.007 3.508v2.094zM88.766 29c0-.943-.13-1.628-.391-2.055-.255-.432-.656-.648-1.203-.648-.531 0-.925.206-1.18.617-.25.406-.383 1.044-.398 1.914v2.766c0 .927.125 1.617.375 2.07.255.448.661.672 1.219.672.552 0 .95-.216 1.195-.648.245-.433.372-1.094.383-1.985V29z" fill="#fff"/></svg>