<svg width="211" height="42" fill="none" xmlns="http://www.w3.org/2000/svg"><path d="M41.437 7.728c0-.487-.19-.868-.572-1.143-.38-.281-.885-.422-1.512-.422-.562 0-1.03.14-1.406.422-.369.275-.553.636-.553 1.081h-2.637c0-.691.193-1.312.58-1.863.392-.557.946-.99 1.661-1.301a5.89 5.89 0 012.355-.466c1.477 0 2.634.317 3.472.95.838.632 1.257 1.529 1.257 2.689 0 .568-.173 1.096-.519 1.582-.34.486-.826.876-1.459 1.169.704.246 1.243.62 1.618 1.125.375.498.562 1.119.562 1.863 0 1.149-.451 2.063-1.353 2.742-.897.674-2.09 1.011-3.578 1.011-.931 0-1.769-.158-2.513-.475-.744-.322-1.31-.758-1.696-1.31-.381-.556-.572-1.2-.572-1.933h2.655c0 .457.199.841.597 1.152.399.304.908.457 1.53.457.703 0 1.256-.159 1.66-.475.41-.316.616-.718.616-1.204 0-.668-.182-1.146-.545-1.433-.363-.293-.894-.44-1.59-.44H37.92V9.442h1.626c1.26-.017 1.89-.588 1.89-1.713zM51.579 17a2.822 2.822 0 01-.255-.852c-.615.685-1.415 1.028-2.4 1.028-.93 0-1.704-.27-2.32-.809-.609-.539-.914-1.219-.914-2.039 0-1.008.373-1.781 1.117-2.32.75-.54 1.83-.812 3.243-.818h1.169v-.544c0-.44-.114-.792-.343-1.055-.223-.264-.577-.396-1.063-.396-.428 0-.765.103-1.011.308-.24.205-.36.486-.36.844h-2.54c0-.551.17-1.06.51-1.53.339-.468.82-.835 1.44-1.098.622-.27 1.319-.405 2.092-.405 1.172 0 2.1.296 2.786.888.692.586 1.038 1.412 1.038 2.479v4.122c.005.902.131 1.585.377 2.048V17H51.58zm-2.1-1.767c.374 0 .72-.082 1.037-.246.316-.17.55-.395.703-.677v-1.634h-.95c-1.271 0-1.948.44-2.03 1.318l-.008.15c0 .316.11.577.334.782.222.205.527.307.913.307zM63.988 17H61.44V9.547h-3.18V17h-2.54V7.49h8.27V17zm10.503-4.667c0 1.465-.334 2.64-1.002 3.524-.662.88-1.558 1.319-2.69 1.319-.96 0-1.736-.334-2.328-1.002v4.482h-2.54V7.49h2.355l.088.932c.615-.738 1.418-1.108 2.408-1.108 1.172 0 2.083.434 2.734 1.301.65.867.975 2.063.975 3.586v.132zm-2.54-.185c0-.884-.158-1.567-.474-2.047-.311-.48-.765-.721-1.363-.721-.797 0-1.344.305-1.643.914v3.893c.31.628.864.94 1.66.94 1.214 0 1.82-.992 1.82-2.979zm3.727.01c0-.944.181-1.785.545-2.523a3.998 3.998 0 011.564-1.714c.686-.404 1.48-.607 2.382-.607 1.283 0 2.329.393 3.138 1.178.814.785 1.268 1.852 1.362 3.2l.017.65c0 1.459-.407 2.63-1.221 3.515-.815.88-1.907 1.319-3.278 1.319-1.372 0-2.467-.44-3.288-1.319-.814-.878-1.221-2.074-1.221-3.585v-.115zm2.54.184c0 .902.17 1.593.51 2.074.34.475.826.712 1.459.712.615 0 1.095-.234 1.44-.703.347-.475.52-1.23.52-2.268 0-.884-.173-1.57-.52-2.056-.345-.487-.831-.73-1.458-.73-.621 0-1.102.243-1.442.73-.34.48-.51 1.227-.51 2.24zm11.988 2.786c.469 0 .85-.129 1.143-.387.293-.258.445-.6.457-1.028h2.382a3.28 3.28 0 01-.528 1.775c-.346.534-.82.95-1.424 1.248a4.45 4.45 0 01-1.986.44c-1.36 0-2.432-.43-3.217-1.292-.785-.867-1.178-2.063-1.178-3.586v-.167c0-1.465.39-2.634 1.17-3.507.779-.873 1.848-1.31 3.207-1.31 1.19 0 2.142.34 2.857 1.02.72.674 1.087 1.573 1.099 2.698h-2.382c-.012-.492-.164-.89-.457-1.195-.293-.31-.68-.466-1.16-.466-.592 0-1.04.217-1.345.65-.3.428-.448 1.125-.448 2.092v.264c0 .978.149 1.682.448 2.11.299.427.753.64 1.362.64zm13.641-1.635h-1.02V17h-2.54V7.49h2.54v3.577h.905l2.075-3.577h3.208l-3.112 4.527L109.306 17h-3.384l-2.074-3.507zm5.51-1.336c0-.943.182-1.784.545-2.522a4.001 4.001 0 011.565-1.714c.685-.404 1.479-.607 2.382-.607 1.283 0 2.329.393 3.137 1.178.815.785 1.269 1.852 1.363 3.2l.017.65c0 1.459-.407 2.63-1.221 3.515-.815.88-1.908 1.319-3.279 1.319s-2.467-.44-3.287-1.319c-.814-.878-1.222-2.074-1.222-3.585v-.115zm2.54.185c0 .902.17 1.593.51 2.074.34.475.826.712 1.459.712.615 0 1.096-.234 1.442-.703.345-.475.518-1.23.518-2.268 0-.884-.173-1.57-.518-2.056-.346-.487-.832-.73-1.459-.73-.621 0-1.102.243-1.442.73-.34.48-.51 1.227-.51 2.24zm15.663-2.813h-3.05V17h-2.549V9.53h-2.997V7.49h8.596v2.04zm7.013-2.039h2.54V17h-2.54v-5.871L131.393 17h-2.549V7.49h2.549v5.862l3.181-5.862zm13.043 4.843c0 1.465-.334 2.64-1.002 3.524-.662.88-1.558 1.319-2.689 1.319-.961 0-1.738-.334-2.329-1.002v4.482h-2.54V7.49h2.355l.088.932c.615-.738 1.418-1.108 2.408-1.108 1.172 0 2.083.434 2.734 1.301.65.867.975 2.063.975 3.586v.132zm-2.54-.185c0-.884-.158-1.567-.474-2.047-.311-.48-.765-.721-1.363-.721-.797 0-1.344.305-1.643.914v3.893c.31.628.864.94 1.661.94 1.213 0 1.819-.992 1.819-2.979zm3.727.01c0-.944.181-1.785.545-2.523a3.993 3.993 0 011.564-1.714c.686-.404 1.48-.607 2.382-.607 1.283 0 2.329.393 3.138 1.178.814.785 1.268 1.852 1.362 3.2l.017.65c0 1.459-.407 2.63-1.221 3.515-.815.88-1.907 1.319-3.279 1.319-1.371 0-2.466-.44-3.287-1.319-.814-.878-1.221-2.074-1.221-3.585v-.115zm2.54.184c0 .902.17 1.593.51 2.074.339.475.826.712 1.458.712.616 0 1.096-.234 1.442-.703.346-.475.518-1.23.518-2.268 0-.884-.172-1.57-.518-2.056-.346-.487-.832-.73-1.459-.73-.621 0-1.102.243-1.441.73-.34.48-.51 1.227-.51 2.24zm8.2 4.658V7.49h3.973c1.295 0 2.288.229 2.979.686.692.457 1.037 1.113 1.037 1.969 0 .439-.146.835-.439 1.186-.287.346-.709.612-1.266.8.68.129 1.213.384 1.6.764.392.376.589.838.589 1.39 0 .884-.334 1.558-1.002 2.02-.662.464-1.626.695-2.892.695h-4.579zm2.54-3.946v1.916h2.048c.896 0 1.345-.314 1.345-.94 0-.64-.428-.965-1.284-.976h-2.109zm0-1.705h1.573c.891-.012 1.336-.3 1.336-.862 0-.345-.123-.591-.369-.738-.24-.146-.609-.22-1.107-.22h-1.433v1.82zm7.093.808c0-.943.181-1.784.545-2.522a3.993 3.993 0 011.564-1.714c.686-.404 1.48-.607 2.382-.607 1.283 0 2.329.393 3.138 1.178.814.785 1.268 1.852 1.362 3.2l.018.65c0 1.459-.408 2.63-1.222 3.515-.815.88-1.907 1.319-3.278 1.319-1.372 0-2.467-.44-3.288-1.319-.814-.878-1.221-2.074-1.221-3.585v-.115zm2.54.185c0 .902.17 1.593.51 2.074.339.475.826.712 1.459.712.615 0 1.095-.234 1.441-.703.346-.475.519-1.23.519-2.268 0-.884-.173-1.57-.519-2.056-.346-.487-.832-.73-1.459-.73-.621 0-1.102.243-1.441.73-.34.48-.51 1.227-.51 2.24zm11.76 1.151h-1.02V17h-2.54V7.49h2.54v3.577h.905l2.075-3.577h3.208l-3.112 4.527L188.935 17h-3.384l-2.074-3.507z" fill="#fff"/><path d="M15.026 16.45c-.745-.6-1.787-.6-2.383 0L.43 27.55c-.893.75-.298 2.25.894 2.25h4.319v4.65c0 1.35 1.043 2.4 2.383 2.4h12.213c1.34 0 2.383-1.05 2.383-2.4V29.8h4.17c1.191 0 1.787-1.5.894-2.25l-12.66-11.1z" fill="#05E4AE"/><path d="M1.324 20.95h3.128l6.553-6c.744-.75 1.638-1.05 2.68-1.05 1.043 0 1.937.3 2.681 1.05l6.852 6.15h3.574c1.191 0 1.787-1.5.894-2.25l-12.66-11.1c-.745-.6-1.787-.6-2.383 0L.43 18.55c-.893.9-.298 2.4.894 2.4z" fill="#FFE666"/><path d="M37.438 31.477h1.353c.645 0 1.122-.162 1.433-.484.31-.322.466-.75.466-1.283 0-.516-.156-.917-.466-1.204-.305-.287-.727-.43-1.266-.43-.486 0-.893.134-1.222.404a1.265 1.265 0 00-.492 1.037h-2.54c0-.668.179-1.266.536-1.793.363-.534.867-.95 1.512-1.248a5.075 5.075 0 012.145-.449c1.353 0 2.413.325 3.181.976.768.645 1.151 1.535 1.151 2.672 0 .586-.178 1.125-.536 1.617-.357.492-.826.87-1.406 1.134.72.258 1.257.644 1.608 1.16.358.516.537 1.125.537 1.828 0 1.137-.416 2.048-1.248 2.733-.827.686-1.922 1.029-3.287 1.029-1.278 0-2.324-.337-3.138-1.011-.809-.674-1.213-1.564-1.213-2.672h2.54c0 .48.179.873.536 1.178.363.305.809.457 1.336.457.604 0 1.075-.158 1.415-.475.346-.322.519-.747.519-1.274 0-1.277-.704-1.916-2.11-1.916h-1.344v-1.986zm16.453-3.85L48.942 39h-2.68l4.957-10.74h-6.364v-2.057h9.036v1.424zm7.576 6.258c-.662.65-1.436.975-2.32.975-1.131 0-2.037-.386-2.716-1.16-.68-.78-1.02-1.828-1.02-3.146 0-.838.182-1.606.545-2.303a4.022 4.022 0 011.538-1.635c.656-.392 1.395-.589 2.215-.589.844 0 1.594.211 2.25.633.656.422 1.166 1.029 1.53 1.82.363.79.547 1.696.553 2.715v.94c0 2.134-.53 3.81-1.59 5.028-1.061 1.219-2.564 1.87-4.51 1.951l-.624.009v-2.118l.563-.009c2.209-.1 3.404-1.137 3.586-3.111zm-1.697-.967c.41 0 .762-.105 1.055-.316.299-.211.525-.466.677-.765V30.79c0-.861-.164-1.53-.492-2.004-.328-.474-.768-.712-1.319-.712-.51 0-.928.235-1.256.703-.329.463-.493 1.046-.493 1.75 0 .697.159 1.27.475 1.722.322.445.773.668 1.353.668zm6.329 4.834c0-.404.134-.733.404-.984.275-.252.618-.378 1.028-.378.416 0 .759.126 1.029.378.275.252.413.58.413.984 0 .398-.135.724-.405.975-.27.247-.615.37-1.037.37-.416 0-.759-.123-1.028-.37-.27-.251-.404-.577-.404-.975zm5.379-5.045l.738-6.504h7.172v2.118h-5.09l-.316 2.751a4.027 4.027 0 011.925-.483c1.219 0 2.174.378 2.865 1.134.692.755 1.038 1.813 1.038 3.172 0 .827-.176 1.568-.528 2.224a3.697 3.697 0 01-1.494 1.52c-.65.358-1.418.537-2.303.537a5.008 5.008 0 01-2.153-.466 3.883 3.883 0 01-1.573-1.327 3.626 3.626 0 01-.607-1.943h2.514c.053.534.237.95.554 1.248.322.293.74.44 1.257.44.574 0 1.016-.205 1.327-.615.31-.416.465-1.002.465-1.758 0-.727-.178-1.283-.536-1.67-.357-.387-.864-.58-1.52-.58-.604 0-1.093.158-1.468.474l-.246.229-2.021-.501zm18.57 1.002c0 1.77-.365 3.123-1.098 4.06-.732.938-1.805 1.407-3.217 1.407-1.394 0-2.46-.46-3.199-1.38-.738-.92-1.116-2.238-1.134-3.955v-2.356c0-1.787.37-3.143 1.108-4.069.744-.926 1.813-1.389 3.208-1.389 1.394 0 2.46.46 3.199 1.38.738.914 1.116 2.23 1.134 3.947v2.355zm-2.54-2.584c0-1.06-.146-1.831-.439-2.311-.287-.487-.738-.73-1.353-.73-.598 0-1.04.231-1.327.694-.282.457-.431 1.175-.449 2.154v3.111c0 1.043.141 1.82.422 2.33.287.503.744.755 1.371.755.621 0 1.07-.243 1.345-.73.275-.486.42-1.23.43-2.232v-3.041zm12.877 2.584c0 1.77-.366 3.123-1.099 4.06-.732.938-1.805 1.407-3.217 1.407-1.394 0-2.46-.46-3.199-1.38-.738-.92-1.116-2.238-1.134-3.955v-2.356c0-1.787.37-3.143 1.108-4.069.744-.926 1.813-1.389 3.208-1.389 1.394 0 2.46.46 3.199 1.38.738.914 1.116 2.23 1.134 3.947v2.355zm-2.54-2.584c0-1.06-.147-1.831-.44-2.311-.287-.487-.738-.73-1.353-.73-.598 0-1.04.231-1.327.694-.282.457-.431 1.175-.449 2.154v3.111c0 1.043.141 1.82.422 2.33.287.503.744.755 1.371.755.621 0 1.07-.243 1.345-.73.275-.486.419-1.23.43-2.232v-3.041z" fill="#fff"/><path d="M112.173 32.629h-2.482V39h-1.264v-6.371h-2.434v-1.025h6.18v1.025zm.608 2.604c0-.724.142-1.376.424-1.955a3.217 3.217 0 011.19-1.34c.51-.314 1.091-.471 1.743-.471 1.007 0 1.82.348 2.44 1.046.624.697.937 1.624.937 2.782v.089c0 .72-.139 1.367-.417 1.941a3.119 3.119 0 01-1.183 1.333c-.51.32-1.098.479-1.764.479-1.002 0-1.816-.349-2.44-1.046-.62-.697-.93-1.62-.93-2.769v-.089zm1.272.15c0 .821.189 1.48.567 1.976.383.497.893.745 1.531.745.643 0 1.153-.25 1.532-.752.378-.505.567-1.212.567-2.119 0-.81-.194-1.467-.581-1.968a1.825 1.825 0 00-1.531-.76c-.625 0-1.128.25-1.511.746-.383.497-.574 1.208-.574 2.133zm13.296 0c0 1.126-.258 2.033-.773 2.721-.515.689-1.212 1.033-2.092 1.033-.897 0-1.604-.285-2.119-.855v3.562h-1.264v-10.24h1.155l.061.82c.515-.638 1.231-.957 2.147-.957.889 0 1.59.335 2.105 1.005.52.67.78 1.602.78 2.796v.116zm-1.265-.143c0-.834-.178-1.492-.533-1.975-.356-.483-.843-.725-1.463-.725-.766 0-1.34.34-1.723 1.019v3.534c.378.674.957 1.011 1.737 1.011.606 0 1.086-.239 1.442-.717.36-.483.54-1.199.54-2.147zm7.656-2.59h-3.411V39h-1.271v-7.396h4.682v1.045zm5.886-1.046h1.265V39h-1.265v-5.394L136.215 39h-1.265v-7.396h1.265v5.4l3.411-5.4z" fill="#DDF3FF"/></svg>