<svg width="262" height="52" fill="none" xmlns="http://www.w3.org/2000/svg"><path d="M50.11 8.667c0-.594-.233-1.06-.699-1.396-.465-.344-1.081-.516-1.848-.516-.687 0-1.26.172-1.718.516-.451.336-.677.777-.677 1.32h-3.223c0-.844.237-1.603.71-2.277.48-.68 1.156-1.21 2.03-1.59.88-.379 1.84-.569 2.878-.569 1.805 0 3.22.387 4.244 1.16 1.024.774 1.536 1.87 1.536 3.288a3.27 3.27 0 01-.634 1.933c-.415.595-1.01 1.07-1.783 1.429.86.3 1.518.759 1.976 1.375.459.609.688 1.368.688 2.277 0 1.404-.552 2.521-1.655 3.352-1.095.823-2.553 1.235-4.372 1.235-1.138 0-2.162-.193-3.072-.58-.91-.394-1.6-.927-2.073-1.6-.465-.68-.698-1.469-.698-2.364h3.244c0 .559.243 1.028.73 1.407.487.373 1.11.559 1.87.559.859 0 1.536-.193 2.03-.58.501-.387.752-.877.752-1.472 0-.816-.222-1.4-.666-1.75-.444-.359-1.092-.538-1.945-.538h-1.922v-2.524H47.8c1.54-.022 2.31-.72 2.31-2.095zM62.505 20a3.447 3.447 0 01-.312-1.042c-.752.838-1.73 1.257-2.932 1.257-1.139 0-2.084-.33-2.836-.988-.745-.66-1.117-1.49-1.117-2.493 0-1.231.454-2.177 1.364-2.836.916-.658 2.238-.991 3.964-.999h1.428v-.666c0-.537-.14-.966-.418-1.289-.273-.322-.706-.483-1.3-.483-.523 0-.935.125-1.236.376-.293.25-.44.594-.44 1.031h-3.105c0-.673.208-1.296.623-1.869.416-.573 1.003-1.02 1.762-1.343.76-.33 1.611-.494 2.557-.494 1.432 0 2.567.362 3.405 1.085.845.716 1.268 1.726 1.268 3.03v5.037c.007 1.103.16 1.938.462 2.503V20h-3.137zm-2.568-2.16c.459 0 .881-.1 1.268-.3.387-.208.673-.483.86-.827v-1.998h-1.16c-1.555 0-2.382.537-2.482 1.611l-.01.183c0 .386.135.705.407.956.272.25.645.376 1.117.376zM77.674 20h-3.115v-9.11h-3.89V20h-3.104V8.377h10.109V20zm12.837-5.704c0 1.79-.408 3.226-1.225 4.308-.81 1.074-1.905 1.61-3.287 1.61-1.174 0-2.123-.407-2.847-1.224v5.479h-3.104V8.377h2.879l.107 1.139c.752-.903 1.733-1.354 2.944-1.354 1.432 0 2.545.53 3.34 1.59.795 1.06 1.193 2.52 1.193 4.383v.16zm-3.105-.226c0-1.081-.193-1.915-.58-2.503-.38-.587-.934-.88-1.665-.88-.974 0-1.643.372-2.009 1.117v4.758c.38.767 1.057 1.15 2.03 1.15 1.483 0 2.224-1.214 2.224-3.642zm4.555.011c0-1.153.222-2.18.666-3.083a4.891 4.891 0 011.912-2.095c.838-.494 1.808-.74 2.911-.74 1.569 0 2.847.479 3.835 1.439.996.96 1.551 2.263 1.665 3.91l.022.795c0 1.783-.498 3.215-1.493 4.296-.996 1.075-2.332 1.612-4.007 1.612-1.676 0-3.015-.537-4.018-1.611-.995-1.075-1.493-2.536-1.493-4.383v-.14zm3.104.226c0 1.102.208 1.948.624 2.535.415.58 1.01.87 1.783.87.752 0 1.339-.287 1.761-.86.423-.58.634-1.503.634-2.77 0-1.082-.211-1.92-.634-2.515-.422-.594-1.017-.891-1.783-.891-.759 0-1.346.297-1.761.891-.416.588-.624 1.5-.624 2.74zm14.653 3.405c.573 0 1.038-.158 1.396-.473.358-.315.545-.734.559-1.257h2.911a4.004 4.004 0 01-.645 2.17 4.29 4.29 0 01-1.74 1.526c-.73.358-1.539.537-2.428.537-1.661 0-2.972-.526-3.931-1.58-.96-1.06-1.44-2.52-1.44-4.382v-.204c0-1.79.477-3.22 1.429-4.286.953-1.067 2.26-1.6 3.921-1.6 1.454 0 2.618.414 3.491 1.245.881.824 1.329 1.923 1.343 3.298h-2.911c-.014-.601-.201-1.088-.559-1.46-.358-.38-.83-.57-1.418-.57-.723 0-1.271.265-1.643.795-.365.522-.548 1.375-.548 2.556v.323c0 1.196.183 2.055.548 2.578.365.523.92.784 1.665.784zm16.672-1.998h-1.246V20h-3.105V8.377h3.105v4.372h1.106l2.535-4.372h3.921l-3.803 5.532L133.061 20h-4.136l-2.535-4.286zm6.735-1.633c0-1.153.222-2.18.666-3.083a4.891 4.891 0 011.912-2.095c.838-.494 1.808-.74 2.911-.74 1.569 0 2.847.479 3.835 1.439.996.96 1.551 2.263 1.665 3.91l.022.795c0 1.783-.498 3.215-1.493 4.296-.996 1.075-2.331 1.612-4.007 1.612-1.676 0-3.015-.537-4.018-1.611-.995-1.075-1.493-2.536-1.493-4.383v-.14zm3.104.226c0 1.102.208 1.948.624 2.535.415.58 1.009.87 1.783.87.752 0 1.339-.287 1.761-.86.423-.58.634-1.503.634-2.77 0-1.082-.211-1.92-.634-2.515-.422-.594-1.016-.891-1.783-.891-.759 0-1.346.297-1.761.891-.416.588-.624 1.5-.624 2.74zm19.143-3.438h-3.727V20h-3.116v-9.13h-3.663V8.376h10.506v2.492zm8.572-2.492h3.105V20h-3.105v-7.176L160.056 20h-3.116V8.377h3.116v7.165l3.888-7.165zm15.942 5.919c0 1.79-.408 3.226-1.225 4.308-.809 1.074-1.905 1.61-3.287 1.61-1.174 0-2.123-.407-2.847-1.224v5.479h-3.104V8.377h2.879l.107 1.139c.752-.903 1.733-1.354 2.944-1.354 1.432 0 2.545.53 3.34 1.59.795 1.06 1.193 2.52 1.193 4.383v.16zm-3.105-.226c0-1.081-.193-1.915-.58-2.503-.379-.587-.934-.88-1.665-.88-.974 0-1.643.372-2.009 1.117v4.758c.38.767 1.057 1.15 2.031 1.15 1.482 0 2.223-1.214 2.223-3.642zm4.555.011c0-1.153.222-2.18.666-3.083a4.891 4.891 0 011.912-2.095c.838-.494 1.808-.74 2.911-.74 1.569 0 2.847.479 3.835 1.439.996.96 1.551 2.263 1.665 3.91l.022.795c0 1.783-.498 3.215-1.493 4.296-.996 1.075-2.332 1.612-4.007 1.612-1.676 0-3.015-.537-4.018-1.611-.995-1.075-1.493-2.536-1.493-4.383v-.14zm3.104.226c0 1.102.208 1.948.623 2.535.416.58 1.01.87 1.784.87.752 0 1.339-.287 1.761-.86.423-.58.634-1.503.634-2.77 0-1.082-.211-1.92-.634-2.515-.422-.594-1.017-.891-1.783-.891-.759 0-1.346.297-1.762.891-.415.588-.623 1.5-.623 2.74zM194.463 20V8.377h4.855c1.583 0 2.797.28 3.642.838.845.558 1.268 1.36 1.268 2.406 0 .537-.179 1.02-.538 1.45-.35.423-.866.749-1.546.978.83.157 1.482.469 1.955.934.479.459.719 1.024.719 1.698 0 1.081-.408 1.905-1.224 2.47-.809.566-1.988.849-3.534.849h-5.597zm3.104-4.823v2.342h2.503c1.096 0 1.644-.384 1.644-1.15 0-.78-.523-1.178-1.568-1.192h-2.579zm0-2.084h1.923c1.089-.014 1.633-.366 1.633-1.053 0-.422-.15-.723-.451-.902-.294-.18-.745-.269-1.354-.269h-1.751v2.224zm8.669.988c0-1.153.222-2.18.666-3.083a4.89 4.89 0 011.912-2.095c.838-.494 1.809-.74 2.912-.74 1.568 0 2.846.479 3.835 1.439.995.96 1.55 2.263 1.665 3.91l.021.795c0 1.783-.498 3.215-1.493 4.296-.996 1.075-2.331 1.612-4.007 1.612-1.676 0-3.015-.537-4.018-1.611-.995-1.075-1.493-2.536-1.493-4.383v-.14zm3.105.226c0 1.102.208 1.948.623 2.535.415.58 1.01.87 1.783.87.752 0 1.339-.287 1.762-.86.422-.58.634-1.503.634-2.77 0-1.082-.212-1.92-.634-2.515-.423-.594-1.017-.891-1.783-.891-.76 0-1.347.297-1.762.891-.415.588-.623 1.5-.623 2.74zm14.373 1.407h-1.246V20h-3.105V8.377h3.105v4.372h1.106l2.535-4.372h3.921l-3.802 5.532L230.385 20h-4.136l-2.535-4.286zM42.525 40.309l.903-7.95h8.765v2.59h-6.22l-.386 3.361a4.923 4.923 0 012.352-.59c1.49 0 2.657.462 3.502 1.386.845.923 1.268 2.216 1.268 3.877 0 1.01-.215 1.916-.645 2.718a4.52 4.52 0 01-1.826 1.859c-.795.436-1.733.655-2.814.655-.946 0-1.823-.19-2.632-.57-.81-.386-1.45-.927-1.923-1.622-.465-.694-.712-1.486-.741-2.374H45.2c.065.652.29 1.16.677 1.526.394.358.906.537 1.536.537.702 0 1.243-.25 1.622-.752.38-.508.57-1.225.57-2.148 0-.889-.219-1.569-.656-2.041-.437-.473-1.056-.71-1.858-.71-.738 0-1.336.194-1.794.58l-.3.28-2.472-.612zm19.433 1.439c-.81.795-1.755 1.192-2.836 1.192-1.382 0-2.489-.472-3.32-1.417-.83-.953-1.245-2.235-1.245-3.846 0-1.024.222-1.962.666-2.815a4.915 4.915 0 011.88-1.998c.802-.48 1.704-.72 2.707-.72 1.03 0 1.947.258 2.75.774.802.516 1.425 1.257 1.869 2.224.444.966.67 2.073.677 3.319v1.15c0 2.606-.649 4.654-1.945 6.144-1.296 1.49-3.133 2.284-5.51 2.385l-.763.01v-2.588l.687-.011c2.7-.122 4.161-1.39 4.383-3.803zm-2.073-1.182c.501 0 .93-.129 1.289-.386.365-.258.64-.57.827-.935v-1.278c0-1.053-.2-1.87-.602-2.45-.4-.58-.938-.87-1.61-.87-.624 0-1.136.287-1.537.86-.401.566-.602 1.278-.602 2.138 0 .852.194 1.554.58 2.105.394.544.946.816 1.655.816zm7.906-.257l.902-7.95h8.766v2.59h-6.22l-.386 3.361a4.923 4.923 0 012.352-.59c1.49 0 2.657.462 3.502 1.386.845.923 1.268 2.216 1.268 3.877 0 1.01-.215 1.916-.645 2.718a4.52 4.52 0 01-1.826 1.859c-.795.436-1.733.655-2.815.655a6.12 6.12 0 01-2.631-.57c-.81-.386-1.45-.927-1.923-1.622-.466-.694-.713-1.486-.741-2.374h3.072c.064.652.29 1.16.677 1.526.394.358.906.537 1.536.537.701 0 1.242-.25 1.622-.752.38-.508.57-1.225.57-2.148 0-.889-.22-1.569-.656-2.041-.437-.473-1.056-.71-1.859-.71-.737 0-1.335.194-1.793.58l-.301.28-2.471-.612zm12.461 6.166c0-.495.165-.896.494-1.203.337-.308.756-.462 1.257-.462.508 0 .927.154 1.257.462.336.307.505.709.505 1.203 0 .487-.165.884-.495 1.192-.329.3-.751.451-1.267.451-.508 0-.927-.15-1.257-.451-.33-.308-.494-.705-.494-1.192zm16.64-4.942c0 2.163-.448 3.817-1.343 4.963s-2.206 1.719-3.932 1.719c-1.704 0-3.008-.562-3.91-1.687-.902-1.124-1.364-2.735-1.386-4.834v-2.879c0-2.184.451-3.842 1.354-4.973.91-1.132 2.216-1.697 3.92-1.697 1.705 0 3.008.562 3.91 1.686.903 1.117 1.365 2.725 1.387 4.823v2.88zm-3.105-3.158c0-1.296-.179-2.238-.537-2.825-.35-.595-.902-.892-1.654-.892-.73 0-1.272.283-1.622.849-.344.558-.527 1.436-.548 2.632v3.802c0 1.275.172 2.224.515 2.847.351.616.91.924 1.676.924.76 0 1.307-.297 1.644-.892.336-.594.512-1.504.526-2.728v-3.717zm15.737 3.158c0 2.163-.447 3.817-1.342 4.963-.896 1.146-2.206 1.719-3.932 1.719-1.704 0-3.008-.562-3.91-1.687-.903-1.124-1.364-2.735-1.386-4.834v-2.879c0-2.184.451-3.842 1.354-4.973.909-1.132 2.216-1.697 3.921-1.697 1.704 0 3.007.562 3.91 1.686.902 1.117 1.364 2.725 1.385 4.823v2.88zm-3.104-3.158c0-1.296-.179-2.238-.537-2.825-.351-.595-.903-.892-1.654-.892-.731 0-1.272.283-1.623.849-.343.558-.526 1.436-.547 2.632v3.802c0 1.275.171 2.224.515 2.847.351.616.91.924 1.676.924.759 0 1.307-.297 1.644-.892.336-.594.512-1.504.526-2.728v-3.717zm15.737 3.158c0 2.163-.447 3.817-1.343 4.963-.895 1.146-2.205 1.719-3.931 1.719-1.705 0-3.008-.562-3.91-1.687-.903-1.124-1.365-2.735-1.386-4.834v-2.879c0-2.184.451-3.842 1.353-4.973.91-1.132 2.217-1.697 3.921-1.697 1.705 0 3.008.562 3.91 1.686.903 1.117 1.365 2.725 1.386 4.823v2.88zm-3.104-3.158c0-1.296-.179-2.238-.537-2.825-.351-.595-.903-.892-1.655-.892-.73 0-1.271.283-1.622.849-.343.558-.526 1.436-.548 2.632v3.802c0 1.275.172 2.224.516 2.847.351.616.91.924 1.676.924.759 0 1.307-.297 1.643-.892.337-.594.512-1.504.527-2.728v-3.717z" fill="#fff"/><path d="M137.687 48h-1.626v-8.165h-4.377V48h-1.635v-9.51h7.638V48zm2.179-4.843c0-.931.182-1.77.545-2.513.369-.745.879-1.319 1.529-1.723.657-.404 1.404-.606 2.242-.606 1.295 0 2.34.448 3.137 1.344.803.897 1.204 2.089 1.204 3.577v.115c0 .925-.178 1.757-.536 2.496a4 4 0 01-1.52 1.713c-.656.41-1.412.616-2.268.616-1.289 0-2.335-.449-3.137-1.345-.797-.896-1.196-2.083-1.196-3.56v-.114zm1.635.194c0 1.054.243 1.901.729 2.54.493.638 1.149.958 1.969.958.826 0 1.483-.323 1.969-.967.486-.65.729-1.559.729-2.725 0-1.043-.249-1.886-.747-2.531-.492-.65-1.148-.976-1.968-.976-.803 0-1.451.32-1.943.958-.492.64-.738 1.553-.738 2.743zm8.35 3.322l.562-.695c.633-.82.993-2.05 1.081-3.69l.15-3.798h6.126v8.183h1.221v4.122h-1.626V48h-6.636v2.795h-1.625l.008-4.122h.739zm1.924 0h4.369v-6.68h-2.927l-.097 2.268c-.099 1.892-.548 3.363-1.345 4.412zM168.571 48h-1.626v-8.165h-4.377V48h-1.634v-9.51h7.637V48zm8.763-9.51h1.626V48h-1.626v-6.935L172.948 48h-1.626v-9.51h1.626v6.944l4.386-6.944zm8.051 8.359a2.34 2.34 0 001.52-.528c.434-.351.674-.79.721-1.318h1.538c-.029.545-.217 1.063-.562 1.556a3.7 3.7 0 01-1.389 1.177 3.968 3.968 0 01-1.828.44c-1.295 0-2.326-.43-3.094-1.292-.762-.867-1.143-2.051-1.143-3.551v-.273c0-.925.17-1.748.51-2.47.34-.72.826-1.28 1.459-1.678.639-.398 1.392-.597 2.259-.597 1.066 0 1.951.319 2.654.958.709.638 1.087 1.467 1.134 2.487h-1.538c-.047-.615-.281-1.12-.703-1.512-.416-.398-.932-.598-1.547-.598-.826 0-1.468.3-1.925.897-.451.592-.677 1.45-.677 2.575v.308c0 1.095.226 1.94.677 2.53.451.593 1.096.889 1.934.889zM196.863 48c-.093-.188-.17-.522-.228-1.002-.756.785-1.658 1.178-2.707 1.178-.938 0-1.708-.264-2.312-.791-.597-.533-.896-1.207-.896-2.022 0-.99.375-1.758 1.125-2.303.756-.55 1.816-.826 3.181-.826h1.582v-.747c0-.568-.17-1.02-.509-1.353-.34-.34-.841-.51-1.503-.51-.58 0-1.067.146-1.459.44-.393.292-.589.647-.589 1.063h-1.635c0-.475.167-.932.501-1.371.34-.446.797-.797 1.371-1.055a4.643 4.643 0 011.907-.386c1.096 0 1.954.275 2.576.826.621.544.943 1.297.966 2.258v4.377c0 .873.112 1.568.334 2.083V48h-1.705zm-2.698-1.24c.51 0 .993-.131 1.45-.395.457-.263.788-.606.993-1.028v-1.951h-1.274c-1.992 0-2.988.583-2.988 1.749 0 .51.17.908.509 1.195.34.287.777.43 1.31.43zM208.553 48h-1.626v-4.06h-4.368V48h-1.635v-9.51h1.635v4.122h4.368V38.49h1.626V48zm8.771-9.51h1.626V48h-1.626v-6.935L212.938 48h-1.626v-9.51h1.626v6.944l4.386-6.944zm8.183 9.686c-1.289 0-2.338-.422-3.147-1.266-.808-.85-1.213-1.983-1.213-3.401v-.299c0-.943.179-1.784.537-2.523.363-.744.867-1.324 1.511-1.74a3.806 3.806 0 012.11-.633c1.236 0 2.197.408 2.883 1.222.685.815 1.028 1.98 1.028 3.498v.677h-6.443c.024.937.296 1.696.818 2.276.527.575 1.195.862 2.004.862.574 0 1.06-.118 1.459-.352a3.675 3.675 0 001.046-.932l.993.774c-.797 1.224-1.992 1.837-3.586 1.837zm-.202-8.526c-.657 0-1.207.24-1.653.721-.445.475-.72 1.143-.826 2.004h4.764v-.123c-.047-.826-.27-1.465-.668-1.916-.399-.457-.938-.686-1.617-.686z" fill="#DDF3FF"/><path d="M29.247 27.569c-1.032 0-1.72.688-1.72 1.72v11.527H3.44V13.46h14.451c1.032 0 1.72-.688 1.72-1.72s-.688-1.72-1.72-1.72H1.72c-1.032 0-1.72.688-1.72 1.72v30.795c0 1.032.688 1.72 1.72 1.72h27.527c1.032 0 1.72-.688 1.72-1.72V29.289c0-1.032-.688-1.72-1.72-1.72z" fill="#097CBD"/><path d="M33.892 13.633l-3.269-3.269c-.516-.516-1.376-.516-1.72 0l-11.871 11.7c-2.065 2.064-3.44 4.644-4.129 7.397l-.172 1.204c-.172.516.344.86.86.86l1.377-.344c2.752-.688 5.333-2.064 7.397-4.129l11.527-11.526c.344-.517.344-1.377 0-1.893z" fill="#097CBD"/></svg>