<svg width="272" height="45" fill="none" xmlns="http://www.w3.org/2000/svg"><path d="M22.09 25.546c.734 0 1.468.181 2.202.181 3.305 0 5.875-.909 7.71-2.909C35.675 19 34.94 13 34.94 12.818c-.183-.909-.918-1.636-1.836-1.636H26.68V8.636c.734-.181 1.285-.909 1.285-1.818 0-1.09-.918-1.818-1.836-1.818H8.688c-1.101 0-1.836.91-1.836 1.818 0 .91.551 1.455 1.285 1.818v2.546H1.896c-.918 0-1.836.727-1.836 1.636 0 .182-.734 6.364 2.937 10 1.836 1.818 4.406 2.91 7.71 2.91.735 0 1.47 0 2.204-.183a14.798 14.798 0 002.57 1.637c-.184 1.454-.918 6.727-4.04 10.182H8.689c-1.101 0-1.836.909-1.836 1.818 0 1.09.918 1.818 1.836 1.818h17.44c1.102 0 1.836-.91 1.836-1.818 0-1.091-.918-1.818-1.836-1.818h-2.57c-3.12-3.455-3.855-8.728-4.039-10.182a14.83 14.83 0 002.57-1.636zm9.178-10.728c0 1.455-.367 3.818-2.019 5.273-1.101 1.09-2.57 1.636-4.59 1.636.184-.363.368-.909.735-1.454.55-1.637.918-3.455 1.101-5.637h4.773v.182zm-25.7 5.273c-1.47-1.455-1.836-3.818-2.02-5.273h4.773c.184 2.182.55 4 1.101 5.636.184.546.368.91.735 1.455-2.02-.182-3.488-.727-4.59-1.818z" fill="#FFE666"/><path d="M49.98 10.796c.09.979.378 1.683.864 2.114.486.423 1.19.635 2.114.635 1.02 0 1.776-.337 2.27-1.01.492-.68.776-1.683.853-3.009h-4.79v-2.53h4.78c-.084-1.353-.39-2.356-.917-3.009-.52-.659-1.267-.989-2.238-.989-.944 0-1.652.226-2.124.677-.472.444-.746 1.163-.823 2.155h-3.123c.153-1.659.757-2.967 1.812-3.925C49.72.947 51.139.468 52.916.468c1.263 0 2.37.299 3.32.896.959.59 1.695 1.44 2.208 2.55.514 1.104.77 2.392.77 3.863v.99c0 2.234-.558 4.007-1.676 5.32-1.11 1.304-2.637 1.956-4.58 1.956-1.791 0-3.228-.472-4.31-1.415-1.077-.951-1.673-2.229-1.791-3.832h3.123zM70.791 4.57v11.265h-3.008V7.007h-2.655l-.187 3.477c-.118 1.853-.483 3.203-1.094 4.05-.61.847-1.52 1.28-2.727 1.301H60.1l-.032-2.446.375-.032c.541-.041.937-.36 1.187-.957s.406-1.614.468-3.05l.209-4.78h8.484zm7.507 11.473c-1.652 0-2.999-.506-4.04-1.52-1.034-1.013-1.55-2.363-1.55-4.05v-.291c0-1.131.218-2.141.655-3.03.437-.895 1.055-1.582 1.853-2.061.805-.486 1.722-.729 2.749-.729 1.54 0 2.752.486 3.633 1.458.889.971 1.333 2.35 1.333 4.133v1.228h-7.173c.097.736.388 1.326.874 1.77.493.444 1.114.667 1.864.667 1.159 0 2.065-.42 2.717-1.26l1.478 1.655c-.45.639-1.062 1.139-1.832 1.5-.77.353-1.624.53-2.561.53zm-.344-9.245c-.597 0-1.082.202-1.457.604-.368.403-.604.979-.708 1.728h4.185v-.239c-.014-.666-.194-1.18-.541-1.54-.347-.369-.84-.553-1.479-.553zm11.109 4.883h-1.208v4.154h-3.009V4.57h3.01v4.238h1.072l2.457-4.238h3.8l-3.686 5.362 4.03 5.903h-4.01l-2.456-4.154zm16.949-4.695h-3.613v8.85H99.38v-8.85h-3.55V4.57h10.182v2.416zm11.66 3.321c0 1.735-.395 3.127-1.186 4.175-.785 1.04-1.847 1.561-3.186 1.561-1.139 0-2.058-.395-2.759-1.186v5.31h-3.009V4.57h2.79l.104 1.104c.729-.875 1.68-1.312 2.853-1.312 1.388 0 2.467.514 3.238 1.541.77 1.027 1.155 2.443 1.155 4.248v.156zm-3.008-.219c0-1.048-.188-1.856-.563-2.425-.367-.57-.905-.854-1.613-.854-.944 0-1.593.36-1.947 1.083v4.612c.368.742 1.024 1.114 1.968 1.114 1.436 0 2.155-1.177 2.155-3.53zm4.414.011c0-1.118.215-2.114.645-2.988.431-.875 1.048-1.552 1.854-2.03.812-.48 1.752-.719 2.821-.719 1.52 0 2.759.465 3.717 1.395.964.93 1.502 2.194 1.613 3.79l.021.77c0 1.729-.482 3.117-1.447 4.165-.965 1.04-2.259 1.561-3.883 1.561s-2.922-.52-3.894-1.561c-.965-1.041-1.447-2.457-1.447-4.248v-.135zm3.009.218c0 1.07.201 1.888.604 2.457.402.563.978.844 1.728.844.729 0 1.298-.278 1.707-.833.41-.563.614-1.458.614-2.686 0-1.048-.204-1.86-.614-2.436-.409-.577-.985-.865-1.728-.865-.736 0-1.305.288-1.707.865-.403.569-.604 1.454-.604 2.654zm19.281 5.518h-3.019v-4.33h-3.738v4.33h-3.009V4.57h3.009v4.52h3.738V4.57h3.019v11.265zm12.097 0h-3.019v-4.33h-3.737v4.33H143.7V4.57h3.009v4.52h3.737V4.57h3.019v11.265zm5.55-7.965h2.155c.971 0 1.825.164 2.561.49.735.326 1.298.795 1.686 1.406.396.603.594 1.308.594 2.113 0 1.187-.441 2.145-1.322 2.873-.875.722-2.069 1.083-3.582 1.083h-5.112V4.57h3.02v3.3zm11.785 7.965h-3.009V4.57h3.009v11.265zm-11.785-5.549v3.144h2.134c.597 0 1.055-.139 1.374-.416.319-.278.479-.656.479-1.135 0-.486-.156-.871-.468-1.156-.313-.291-.774-.437-1.385-.437h-2.134zm21.228-5.716h3.008v11.265h-3.008V8.881l-3.769 6.954h-3.019V4.57h3.019v6.945l3.769-6.945zm1.77-4.57c0 .923-.334 1.67-1 2.238-.659.57-1.527.854-2.603.854-1.075 0-1.947-.281-2.613-.843-.659-.562-.989-1.312-.989-2.249h2.134c0 .437.129.777.386 1.02.263.236.624.354 1.082.354.451 0 .805-.118 1.062-.354.257-.243.385-.583.385-1.02h2.156zm15.377 15.835a3.323 3.323 0 01-.302-1.01c-.729.812-1.676 1.218-2.843 1.218-1.103 0-2.019-.319-2.748-.957-.722-.639-1.083-1.444-1.083-2.416 0-1.194.441-2.11 1.322-2.748.889-.639 2.169-.962 3.842-.969h1.385v-.645c0-.52-.136-.937-.406-1.25-.264-.312-.684-.468-1.26-.468-.507 0-.906.122-1.197.365-.285.242-.427.576-.427.999h-3.009c0-.652.201-1.256.604-1.811.402-.556.972-.99 1.707-1.302.736-.32 1.562-.479 2.478-.479 1.388 0 2.488.35 3.3 1.052.819.694 1.229 1.672 1.229 2.936v4.882c.007 1.07.156 1.878.448 2.426v.177h-3.04zm-2.489-2.092c.445 0 .854-.098 1.229-.292.375-.201.652-.469.833-.802v-1.936h-1.125c-1.506 0-2.307.52-2.405 1.562l-.01.177c0 .374.132.683.396.926.263.243.624.365 1.082.365zm11.432-2.166l2.082-7.007h3.227l-4.528 13.014-.25.594c-.674 1.471-1.784 2.207-3.332 2.207-.437 0-.881-.066-1.332-.198v-2.28l.458.01c.569 0 .992-.086 1.27-.26.284-.173.506-.462.666-.864l.354-.927-3.946-11.296h3.238l2.093 7.007zm10.91.104h-1.207v4.154h-3.009V4.57h3.009v4.238h1.072l2.457-4.238h3.8l-3.685 5.362 4.029 5.903H219.7l-2.457-4.154zm7.6-7.111h3.009v8.84h3.769V4.57h3.019v8.86h1.687l-.208 5.747h-2.801v-3.342h-8.475V4.57zm19.781 0h3.009v11.265h-3.009V8.881l-3.768 6.954h-3.02V4.57h3.02v6.945l3.768-6.945zm4.842 5.529c0-1.118.215-2.114.645-2.988a4.734 4.734 0 011.853-2.03c.812-.48 1.753-.719 2.822-.719 1.52 0 2.759.465 3.716 1.395.965.93 1.503 2.194 1.614 3.79l.021.77c0 1.729-.483 3.117-1.447 4.165-.965 1.04-2.259 1.561-3.884 1.561-1.624 0-2.922-.52-3.893-1.561-.965-1.041-1.447-2.457-1.447-4.248v-.135zm3.008.218c0 1.07.202 1.888.604 2.457.403.563.979.844 1.728.844.729 0 1.298-.278 1.708-.833.409-.563.614-1.458.614-2.686 0-1.048-.205-1.86-.614-2.436-.41-.577-.986-.865-1.728-.865-.736 0-1.305.288-1.708.865-.402.569-.604 1.454-.604 2.654zm19.282 5.518h-3.02v-4.33h-3.737v4.33h-3.009V4.57h3.009v4.52h3.737V4.57h3.02v11.265zM57.692 43.82h-10.39v-2.061l4.904-5.227c.673-.735 1.169-1.377 1.488-1.926.326-.548.49-1.069.49-1.561 0-.674-.17-1.201-.51-1.583-.34-.389-.827-.583-1.458-.583-.68 0-1.218.236-1.614.708-.388.465-.583 1.08-.583 1.843H47a5 5 0 01.656-2.53 4.66 4.66 0 011.874-1.79c.805-.438 1.718-.657 2.738-.657 1.562 0 2.773.375 3.633 1.125.868.75 1.302 1.808 1.302 3.175 0 .75-.195 1.513-.583 2.29-.389.778-1.055 1.684-2 2.718l-3.445 3.633h6.517v2.426zm2.134-1.478c0-.48.16-.868.48-1.166.326-.299.732-.448 1.217-.448.493 0 .9.15 1.218.448.327.298.49.687.49 1.166 0 .472-.16.857-.48 1.155-.318.292-.728.438-1.228.438-.492 0-.898-.146-1.218-.438-.319-.298-.479-.683-.479-1.155zm8.985-7.434h1.603c.764 0 1.33-.19 1.697-.572.368-.382.552-.889.552-1.52 0-.611-.184-1.087-.552-1.427-.36-.34-.86-.51-1.499-.51-.576 0-1.058.16-1.447.479a1.5 1.5 0 00-.583 1.229h-3.009c0-.792.212-1.5.635-2.124.43-.632 1.028-1.125 1.791-1.479.77-.354 1.617-.53 2.54-.53 1.604 0 2.86.384 3.77 1.155.908.763 1.363 1.818 1.363 3.165a3.19 3.19 0 01-.635 1.916 4.126 4.126 0 01-1.666 1.343c.854.305 1.489.763 1.905 1.374.424.61.635 1.332.635 2.165 0 1.347-.492 2.426-1.478 3.238-.979.812-2.277 1.218-3.894 1.218-1.513 0-2.752-.399-3.716-1.197-.958-.798-1.437-1.853-1.437-3.165h3.009c0 .57.211 1.034.635 1.395.43.361.957.541 1.582.541.715 0 1.274-.187 1.676-.562.41-.382.615-.885.615-1.51 0-1.512-.833-2.269-2.499-2.269h-1.593v-2.353zm9.63 1.458l.875-7.704h8.495v2.509h-6.028l-.375 3.258a4.77 4.77 0 012.28-.572c1.444 0 2.575.447 3.394 1.343.82.895 1.229 2.148 1.229 3.758 0 .979-.208 1.857-.625 2.634-.41.77-1 1.37-1.77 1.801-.77.423-1.68.635-2.727.635a5.93 5.93 0 01-2.551-.552c-.784-.374-1.406-.898-1.864-1.572-.45-.673-.69-1.44-.718-2.3h2.978c.062.631.28 1.124.655 1.478.382.347.879.52 1.49.52.68 0 1.203-.242 1.571-.728.368-.493.552-1.187.552-2.083 0-.86-.212-1.52-.635-1.978-.423-.458-1.024-.687-1.801-.687-.715 0-1.294.188-1.739.563l-.291.27-2.395-.593zm19.105 7.454h-3.01V32.222l-3.591 1.114V30.89l6.278-2.25h.323v15.18zm5.215-1.478c0-.48.16-.868.479-1.166.327-.299.733-.448 1.218-.448.493 0 .899.15 1.219.448.326.298.489.687.489 1.166 0 .472-.16.857-.479 1.155-.319.292-.729.438-1.229.438-.492 0-.898-.146-1.218-.438-.319-.298-.479-.683-.479-1.155zm14.826-4.227h1.718v2.425h-1.718v3.28h-3.009v-3.28h-6.215l-.136-1.894 6.32-9.984h3.04v9.453zm-6.361 0h3.352v-5.352l-.198.344-3.154 5.008zm16.741-.355c-.785.771-1.701 1.156-2.749 1.156-1.34 0-2.412-.458-3.217-1.374-.805-.923-1.208-2.165-1.208-3.727 0-.992.216-1.902.646-2.728a4.759 4.759 0 011.822-1.936c.777-.465 1.652-.698 2.623-.698 1 0 1.888.25 2.666.75.777.5 1.381 1.218 1.811 2.155.43.937.649 2.01.656 3.217v1.114c0 2.526-.628 4.511-1.884 5.955-1.257 1.444-3.037 2.214-5.341 2.311l-.739.01v-2.508l.666-.01c2.616-.119 4.032-1.347 4.248-3.686zm-2.01-1.144c.486 0 .903-.125 1.25-.375.354-.25.621-.552.801-.906v-1.239c0-1.02-.194-1.811-.583-2.374-.389-.562-.909-.843-1.561-.843-.604 0-1.101.278-1.489.833-.389.548-.583 1.239-.583 2.072 0 .826.187 1.506.562 2.04.382.528.916.792 1.603.792zm17.418.937c0 2.096-.434 3.699-1.302 4.81-.867 1.11-2.137 1.665-3.81 1.665-1.652 0-2.915-.545-3.79-1.634-.874-1.09-1.322-2.652-1.343-4.685v-2.79c0-2.117.438-3.724 1.312-4.82.882-1.097 2.148-1.646 3.8-1.646 1.652 0 2.915.545 3.79 1.635.874 1.083 1.322 2.64 1.343 4.674v2.79zm-3.009-3.061c0-1.256-.173-2.17-.52-2.738-.341-.577-.875-.864-1.604-.864-.708 0-1.232.274-1.572.822-.333.541-.51 1.392-.531 2.55v3.686c0 1.236.167 2.155.5 2.76.34.596.881.895 1.624.895.736 0 1.267-.289 1.593-.865.326-.576.496-1.457.51-2.644v-3.602z" fill="#fff"/></svg>