<svg width="205" height="36" fill="none" xmlns="http://www.w3.org/2000/svg"><path d="M39.577 0l3.412 9.483L46.383 0h3.595v13.075H47.23V9.502l.274-6.17-3.586 9.745H42.04L38.463 3.34l.274 6.16v3.575H36V0h3.577zm18.338 13.075a2.849 2.849 0 01-.264-.87c-.639.7-1.47 1.05-2.49 1.05-.968 0-1.771-.275-2.41-.826a2.645 2.645 0 01-.948-2.084c0-1.03.386-1.82 1.158-2.37.779-.551 1.901-.83 3.367-.836h1.213v-.556c0-.45-.118-.809-.355-1.078-.232-.27-.6-.404-1.104-.404-.444 0-.794.105-1.05.314-.25.21-.374.497-.374.862h-2.636c0-.562.176-1.083.529-1.562.352-.48.851-.853 1.496-1.123.645-.275 1.369-.413 2.171-.413 1.217 0 2.181.302 2.893.907.717.599 1.076 1.443 1.076 2.533v4.211c.006.922.137 1.62.393 2.093v.152h-2.665zm-2.18-1.804c.39 0 .748-.084 1.077-.252.328-.174.571-.404.73-.691v-1.67h-.986c-1.32 0-2.023.448-2.108 1.346l-.009.153c0 .323.116.59.347.8.231.209.547.313.949.313zm15.063-7.912v9.716h-2.636V5.46h-2.327l-.164 3c-.104 1.598-.423 2.763-.958 3.493-.536.73-1.332 1.105-2.39 1.123h-.895l-.027-2.11.328-.028c.475-.036.821-.311 1.04-.826.22-.515.356-1.392.41-2.631l.183-4.122h7.436zm7.756 9.716a2.846 2.846 0 01-.265-.87c-.639.7-1.469 1.05-2.49 1.05-.968 0-1.77-.275-2.41-.826a2.645 2.645 0 01-.948-2.084c0-1.03.386-1.82 1.158-2.37.779-.551 1.901-.83 3.367-.836h1.214v-.556c0-.45-.12-.809-.356-1.078-.231-.27-.6-.404-1.104-.404-.444 0-.794.105-1.05.314-.249.21-.374.497-.374.862H72.66c0-.562.176-1.083.529-1.562.353-.48.851-.853 1.496-1.123.645-.275 1.369-.413 2.171-.413 1.217 0 2.181.302 2.893.907.718.599 1.076 1.443 1.076 2.533v4.211c.007.922.137 1.62.393 2.093v.152h-2.664zm-2.181-1.804c.39 0 .748-.084 1.077-.252.328-.174.571-.404.73-.691v-1.67h-.986c-1.32 0-2.022.448-2.108 1.346l-.009.153c0 .323.116.59.347.8.231.209.547.313.949.313zM91.08 3.359v9.716h-2.627V9.717h-1.67l-1.898 3.358h-2.673l2.153-3.798c-.59-.27-1.046-.635-1.368-1.096a2.712 2.712 0 01-.475-1.571c0-.94.368-1.71 1.104-2.308.742-.605 1.734-.92 2.975-.943h4.48zm-4.434 4.544h1.807v-2.46h-1.715c-.469 0-.849.122-1.14.367-.293.24-.439.533-.439.88 0 .348.14.635.42.863.28.227.636.344 1.067.35zm16.496-1.68c0-.34-.115-.604-.346-.79-.225-.191-.548-.287-.968-.287-.431 0-.784.09-1.058.27a.836.836 0 00-.401.745h-2.637c0-.88.37-1.596 1.113-2.147.742-.55 1.691-.826 2.847-.826 1.271 0 2.268.246 2.992.736.73.491 1.095 1.189 1.095 2.093 0 .431-.134.83-.401 1.194-.262.36-.633.647-1.113.862 1.125.39 1.687 1.141 1.687 2.255 0 .892-.389 1.604-1.167 2.137-.773.527-1.804.79-3.093.79-1.199 0-2.184-.275-2.956-.826-.773-.55-1.16-1.293-1.16-2.227h2.638c0 .33.149.595.447.8.298.203.687.304 1.167.304.469 0 .834-.107 1.095-.323a1.04 1.04 0 00.393-.844c0-.425-.125-.727-.374-.907-.25-.186-.624-.278-1.123-.278h-1.432V7.265h1.524c.821-.024 1.231-.371 1.231-1.042zm10.137 6.852a2.846 2.846 0 01-.265-.87c-.638.7-1.469 1.05-2.491 1.05-.967 0-1.77-.275-2.408-.826a2.643 2.643 0 01-.949-2.084c0-1.03.386-1.82 1.159-2.37.778-.551 1.9-.83 3.366-.836h1.214v-.556c0-.45-.119-.809-.356-1.078-.231-.27-.599-.404-1.104-.404-.444 0-.794.105-1.049.314-.25.21-.374.497-.374.862h-2.637c0-.562.176-1.083.529-1.562.353-.48.852-.853 1.496-1.123.645-.275 1.369-.413 2.172-.413 1.216 0 2.18.302 2.892.907.718.599 1.077 1.443 1.077 2.533v4.211c.006.922.137 1.62.392 2.093v.152h-2.664zm-2.181-1.804c.39 0 .748-.084 1.077-.252.328-.174.572-.404.73-.691v-1.67h-.986c-1.319 0-2.022.448-2.107 1.346l-.009.153c0 .323.115.59.346.8.232.209.548.313.949.313zm10.347-1.779h-1.059v3.583h-2.636V3.36h2.636v3.655h.94l2.153-3.655h3.331l-3.23 4.625 3.531 5.091h-3.513l-2.153-3.583zm10.346-.089l1.825-6.044h2.828l-3.969 11.225-.219.512c-.59 1.27-1.563 1.904-2.919 1.904-.383 0-.773-.057-1.168-.17v-1.967l.401.009c.499 0 .87-.075 1.114-.225.249-.15.444-.398.583-.745l.311-.8-3.458-9.743h2.837l1.834 6.044zm14.279 3.672h-2.646V5.46h-3.303v7.615h-2.637V3.36h8.586v9.716zm5.885-3.583h-1.059v3.583h-2.636V3.36h2.636v3.655h.94l2.153-3.655h3.331l-3.23 4.625 3.531 5.091h-3.513l-2.153-3.583zm12.381 3.583a2.846 2.846 0 01-.265-.87c-.638.7-1.469 1.05-2.491 1.05-.967 0-1.77-.275-2.408-.826a2.643 2.643 0 01-.949-2.084c0-1.03.386-1.82 1.159-2.37.778-.551 1.9-.83 3.366-.836h1.214v-.556c0-.45-.119-.809-.356-1.078-.231-.27-.599-.404-1.104-.404-.444 0-.794.105-1.049.314-.25.21-.374.497-.374.862h-2.637c0-.562.176-1.083.529-1.562.353-.48.852-.853 1.496-1.123.645-.275 1.369-.413 2.172-.413 1.216 0 2.18.302 2.892.907.718.599 1.077 1.443 1.077 2.533v4.211c.006.922.137 1.62.392 2.093v.152h-2.664zm-2.181-1.804c.39 0 .748-.084 1.077-.252.328-.174.572-.404.73-.691v-1.67h-.986c-1.32 0-2.022.448-2.107 1.346l-.009.153c0 .323.115.59.346.8.232.209.548.313.949.313z" fill="#fff"/><path d="M20.715 16.46c-.731 0-1.219.487-1.219 1.218v8.164H2.437V6.468h10.236c.73 0 1.218-.488 1.218-1.219 0-.731-.487-1.219-1.218-1.219H1.219C.487 4.03 0 4.518 0 5.25v21.812c0 .73.487 1.218 1.219 1.218h19.496c.731 0 1.218-.487 1.218-1.218v-9.383c0-.731-.487-1.219-1.218-1.219z" fill="#097CBD"/><path d="M24.196 6.59l-2.315-2.316c-.366-.365-.975-.365-1.218 0l-8.408 8.286c-1.463 1.462-2.437 3.29-2.925 5.24l-.122.853c-.121.365.244.609.61.609l.975-.244c1.95-.487 3.777-1.462 5.24-2.924l8.163-8.164c.244-.366.244-.975 0-1.34z" fill="#097CBD"/><path d="M41.404 28.19c-.623.612-1.35.918-2.182.918-1.063 0-1.914-.364-2.553-1.09-.639-.733-.958-1.72-.958-2.959 0-.788.17-1.51.512-2.165a3.781 3.781 0 011.446-1.537c.617-.369 1.311-.553 2.082-.553.794 0 1.499.198 2.116.594.617.397 1.096.967 1.438 1.71.341.745.515 1.596.52 2.554v.884c0 2.006-.498 3.581-1.495 4.727-.998 1.146-2.41 1.757-4.24 1.834l-.586.009v-1.992l.529-.008c2.076-.094 3.2-1.069 3.371-2.925zm-1.595-.908c.386 0 .716-.1.992-.298.28-.198.493-.438.636-.719v-.983c0-.81-.154-1.438-.463-1.884-.308-.446-.721-.67-1.24-.67-.478 0-.872.221-1.18.662-.31.435-.464.983-.464 1.644 0 .656.15 1.196.447 1.62.303.419.727.628 1.272.628zm13.907-4.975L49.064 33h-2.52l4.66-10.098h-5.982V20.97h8.494v1.338zm1.76 9.52c0-.38.127-.689.38-.926.26-.237.582-.355.967-.355.391 0 .714.118.967.355.259.237.388.546.388.926 0 .374-.126.68-.38.917-.253.231-.578.347-.975.347-.391 0-.713-.116-.967-.347-.253-.237-.38-.543-.38-.917zm12.544-7.66c0 .584-.146 1.101-.438 1.553a3.152 3.152 0 01-1.206 1.083c.583.28 1.046.669 1.388 1.165.341.49.512 1.068.512 1.735 0 1.069-.364 1.914-1.09 2.537-.728.617-1.717.925-2.967.925s-2.242-.311-2.975-.934c-.733-.622-1.099-1.465-1.099-2.528 0-.667.17-1.248.512-1.744a3.425 3.425 0 011.38-1.156 3.152 3.152 0 01-1.206-1.083 2.839 2.839 0 01-.43-1.553c0-1.025.342-1.84 1.025-2.446.683-.612 1.611-.918 2.784-.918 1.168 0 2.094.303 2.777.91.689.6 1.033 1.418 1.033 2.454zm-2.14 5.362c0-.523-.152-.942-.455-1.256-.303-.314-.71-.47-1.223-.47-.507 0-.911.156-1.215.47-.303.309-.454.728-.454 1.256 0 .513.149.926.446 1.24.298.314.71.47 1.24.47.518 0 .922-.15 1.214-.454.298-.302.447-.721.447-1.256zm-.248-5.247c0-.468-.124-.843-.372-1.123-.248-.287-.598-.43-1.05-.43-.446 0-.793.137-1.04.413-.249.275-.373.655-.373 1.14 0 .48.124.865.372 1.157.248.292.598.438 1.05.438.452 0 .799-.146 1.04-.438.249-.292.373-.677.373-1.157zm12.361 3.744c0 1.663-.344 2.936-1.032 3.817-.689.882-1.697 1.322-3.025 1.322-1.31 0-2.313-.432-3.008-1.297-.694-.865-1.049-2.104-1.066-3.718v-2.215c0-1.68.348-2.955 1.042-3.826.7-.87 1.705-1.306 3.016-1.306 1.31 0 2.314.433 3.008 1.298.694.86 1.049 2.096 1.066 3.71v2.215zm-2.387-2.43c0-.997-.138-1.721-.414-2.173-.27-.457-.694-.686-1.272-.686-.562 0-.978.218-1.248.653-.264.43-.405 1.104-.421 2.024v2.925c0 .981.132 1.711.396 2.19.27.474.7.71 1.29.71.583 0 1.005-.228 1.264-.685.259-.457.394-1.157.405-2.099v-2.859zm12.105 2.43c0 1.663-.344 2.936-1.033 3.817-.688.882-1.697 1.322-3.024 1.322-1.311 0-2.314-.432-3.008-1.297s-1.05-2.104-1.066-3.718v-2.215c0-1.68.347-2.955 1.041-3.826.7-.87 1.705-1.306 3.016-1.306s2.314.433 3.008 1.298c.694.86 1.05 2.096 1.066 3.71v2.215zm-2.388-2.43c0-.997-.138-1.721-.413-2.173-.27-.457-.694-.686-1.273-.686-.562 0-.978.218-1.247.653-.265.43-.405 1.104-.422 2.024v2.925c0 .981.132 1.711.397 2.19.27.474.7.71 1.289.71.584 0 1.005-.228 1.264-.685.259-.457.394-1.157.405-2.099v-2.859z" fill="#fff"/><path d="M99.657 33h-1.251v-6.28h-3.367V33h-1.257v-7.315h5.875V33zm1.676-3.725c0-.717.14-1.361.42-1.934.284-.572.676-1.014 1.176-1.325a3.227 3.227 0 011.724-.466c.996 0 1.801.344 2.414 1.034.617.69.926 1.607.926 2.752v.088c0 .712-.138 1.352-.413 1.92a3.079 3.079 0 01-1.169 1.318c-.505.316-1.086.473-1.745.473-.991 0-1.796-.345-2.413-1.034-.613-.69-.92-1.602-.92-2.738v-.088zm1.258.149c0 .81.187 1.462.561 1.953.379.492.883.737 1.514.737.636 0 1.141-.248 1.515-.743.374-.5.561-1.2.561-2.096 0-.802-.192-1.451-.575-1.947-.378-.5-.883-.75-1.514-.75-.618 0-1.116.245-1.494.736-.379.491-.568 1.195-.568 2.11zm6.423 2.555l.432-.534c.487-.631.764-1.578.832-2.84l.115-2.92h4.712v6.294h.94v3.17h-1.251V33h-5.104v2.15h-1.251l.007-3.17h.568zm1.48 0h3.36v-5.138h-2.251l-.074 1.744c-.077 1.456-.422 2.587-1.035 3.394zM123.414 33h-1.251v-6.28h-3.366V33h-1.258v-7.315h5.875V33zm6.741-7.315h1.251V33h-1.251v-5.334L126.781 33h-1.251v-7.315h1.251v5.34l3.374-5.34zm6.193 6.43a1.8 1.8 0 001.169-.406c.334-.27.519-.609.555-1.014h1.183a2.268 2.268 0 01-.433 1.196c-.266.379-.622.68-1.068.906a3.055 3.055 0 01-1.406.338c-.996 0-1.79-.331-2.38-.994-.586-.667-.879-1.577-.879-2.731v-.21c0-.712.131-1.345.392-1.9a2.996 2.996 0 011.122-1.29c.492-.307 1.071-.46 1.738-.46.82 0 1.501.245 2.042.736.545.492.836 1.13.872 1.914h-1.183c-.036-.473-.217-.861-.541-1.163-.32-.306-.717-.46-1.19-.46-.636 0-1.129.23-1.481.69-.347.455-.52 1.115-.52 1.98v.237c0 .843.173 1.492.52 1.947.347.456.843.683 1.488.683zm8.829.885c-.072-.144-.13-.401-.175-.77-.582.603-1.276.905-2.083.905-.721 0-1.314-.203-1.778-.608-.46-.41-.69-.929-.69-1.555 0-.762.289-1.352.866-1.772.581-.423 1.397-.635 2.447-.635h1.217v-.575c0-.437-.13-.784-.392-1.04-.261-.262-.647-.393-1.156-.393-.446 0-.82.113-1.122.338-.302.225-.453.498-.453.818H140.6c0-.365.129-.717.386-1.055a2.67 2.67 0 011.054-.81 3.572 3.572 0 011.467-.298c.843 0 1.504.211 1.981.635.478.42.726.998.744 1.738v3.367c0 .671.086 1.205.257 1.602V33h-1.312zm-2.075-.953c.392 0 .764-.102 1.115-.304a1.84 1.84 0 00.764-.791V29.45h-.98c-1.533 0-2.299.448-2.299 1.345 0 .392.131.699.392.92.262.22.598.33 1.008.33zm11.067.953h-1.251v-3.123h-3.36V33h-1.257v-7.315h1.257v3.17h3.36v-3.17h1.251V33zm6.747-7.315h1.251V33h-1.251v-5.334L157.543 33h-1.251v-7.315h1.251v5.34l3.373-5.34zm6.295 7.45c-.992 0-1.799-.324-2.421-.973-.622-.654-.933-1.526-.933-2.617v-.23c0-.725.138-1.372.413-1.94a3.243 3.243 0 011.163-1.339 2.923 2.923 0 011.622-.486c.951 0 1.69.313 2.218.94.527.626.791 1.523.791 2.69v.52h-4.956c.018.722.228 1.306.629 1.752.406.441.919.662 1.541.662.442 0 .816-.09 1.123-.27.306-.18.574-.42.804-.717l.764.595c-.613.942-1.532 1.413-2.758 1.413zm-.156-6.558c-.505 0-.928.185-1.271.555-.342.365-.554.878-.635 1.541h3.664v-.095c-.036-.635-.207-1.126-.514-1.473-.306-.352-.721-.528-1.244-.528z" fill="#DDF3FF"/></svg>