<svg width="245" height="42" fill="none" xmlns="http://www.w3.org/2000/svg"><path d="M48.773 9.533c.08.864.334 1.486.764 1.866.43.374 1.053.561 1.87.561.903 0 1.572-.297 2.008-.892.436-.6.688-1.486.756-2.656h-4.238V6.178h4.229c-.074-1.195-.344-2.081-.811-2.657-.46-.582-1.12-.873-1.98-.873-.836 0-1.462.199-1.88.597-.417.392-.66 1.027-.727 1.903H46c.135-1.465.67-2.62 1.603-3.466.94-.845 2.195-1.268 3.767-1.268 1.118 0 2.098.263 2.939.79.847.521 1.498 1.272 1.953 2.253.454.974.681 2.11.681 3.41v.874c0 1.973-.494 3.539-1.483 4.697-.982 1.152-2.333 1.728-4.053 1.728-1.584 0-2.855-.416-3.813-1.25-.952-.84-1.48-1.967-1.585-3.383h2.764zm18.414-5.497v9.947h-2.662V6.187h-2.35l-.165 3.07c-.104 1.637-.427 2.829-.967 3.577-.54.747-1.345 1.13-2.414 1.149h-.902l-.028-2.16.332-.028c.479-.037.828-.319 1.05-.846.22-.527.359-1.425.414-2.694l.184-4.22h7.508zm6.642 10.13c-1.462 0-2.653-.447-3.575-1.342-.915-.894-1.372-2.086-1.372-3.576v-.257c0-1 .193-1.89.58-2.675.387-.791.934-1.398 1.64-1.82.712-.43 1.523-.644 2.432-.644 1.363 0 2.435.429 3.215 1.287.786.858 1.179 2.074 1.179 3.65v1.084H71.58c.086.65.344 1.17.774 1.563.436.392.985.588 1.648.588 1.026 0 1.828-.37 2.405-1.112l1.308 1.462c-.4.564-.94 1.005-1.621 1.324-.682.312-1.438.468-2.266.468zm-.304-8.163c-.529 0-.959.178-1.29.533-.326.356-.534.864-.626 1.526h3.703v-.211c-.013-.588-.172-1.042-.48-1.36-.306-.326-.742-.488-1.307-.488zm9.828 4.312h-1.068v3.668h-2.662V4.036h2.662v3.741h.949l2.174-3.741h3.362L85.509 8.77l3.565 5.213h-3.547l-2.174-3.668zM98.35 6.169h-3.197v7.814h-2.67V6.169H89.34V4.036h9.009v2.133zm10.317 2.932c0 1.532-.35 2.761-1.05 3.686-.694.92-1.634 1.38-2.819 1.38-1.007 0-1.821-.35-2.441-1.049v4.689h-2.662V4.036h2.469l.092.974c.645-.772 1.486-1.158 2.524-1.158 1.228 0 2.183.453 2.865 1.36.681.908 1.022 2.158 1.022 3.751v.138zm-2.662-.193c0-.925-.166-1.64-.498-2.142-.325-.502-.801-.754-1.427-.754-.836 0-1.41.319-1.723.956v4.073c.326.656.906.983 1.741.983 1.271 0 1.907-1.038 1.907-3.116zm3.906.009c0-.986.19-1.866.571-2.638a4.187 4.187 0 011.639-1.793c.719-.423 1.551-.634 2.497-.634 1.345 0 2.441.41 3.288 1.232.854.821 1.33 1.936 1.428 3.346l.019.68c0 1.526-.427 2.752-1.281 3.678-.853.919-1.999 1.378-3.436 1.378-1.437 0-2.585-.46-3.445-1.379-.854-.919-1.28-2.169-1.28-3.75v-.12zm2.662.193c0 .944.178 1.667.534 2.17.356.496.866.745 1.529.745.645 0 1.149-.246 1.511-.736.362-.496.543-1.287.543-2.372 0-.925-.181-1.642-.543-2.15-.362-.51-.872-.764-1.529-.764-.651 0-1.155.254-1.511.763-.356.503-.534 1.284-.534 2.344zm17.06 4.873h-2.672v-3.825h-3.307v3.825h-2.662V4.036h2.662v3.99h3.307v-3.99h2.672v9.947zm10.704 0h-2.672v-3.825h-3.307v3.825h-2.662V4.036h2.662v3.99h3.307v-3.99h2.672v9.947zm4.91-7.033h1.906c.86 0 1.616.144 2.267.432.651.288 1.148.702 1.492 1.241.35.533.525 1.155.525 1.866 0 1.048-.39 1.894-1.17 2.538-.774.637-1.83.956-3.169.956h-4.523V4.036h2.672V6.95zm10.427 7.033h-2.662V4.036h2.662v9.947zm-10.427-4.9v2.776h1.888c.528 0 .934-.123 1.216-.368.283-.245.424-.579.424-1.002 0-.429-.138-.769-.415-1.02-.276-.258-.685-.386-1.225-.386h-1.888zm18.782-5.047h2.662v9.947h-2.662V7.842l-3.334 6.14h-2.672V4.037h2.672v6.132l3.334-6.132zM165.595 0c0 .815-.294 1.474-.884 1.977-.583.502-1.351.753-2.303.753s-1.723-.248-2.312-.744c-.583-.497-.875-1.159-.875-1.986h1.888c0 .386.114.686.341.9.233.21.553.313.958.313.399 0 .712-.104.94-.312.227-.215.34-.515.34-.901h1.907zm13.606 13.983a2.933 2.933 0 01-.267-.892c-.645.717-1.483 1.075-2.515 1.075-.976 0-1.787-.281-2.432-.845-.639-.564-.958-1.275-.958-2.133 0-1.054.39-1.863 1.17-2.427.786-.564 1.919-.849 3.399-.855h1.225v-.57c0-.46-.119-.827-.359-1.103-.233-.276-.605-.414-1.115-.414-.448 0-.801.107-1.059.322-.252.214-.378.509-.378.882h-2.662c0-.576.178-1.109.534-1.6.357-.49.86-.872 1.511-1.148.651-.282 1.382-.423 2.193-.423 1.228 0 2.201.31 2.92.928.724.613 1.087 1.477 1.087 2.593v4.311c.006.944.138 1.658.396 2.142v.157h-2.69zm-2.202-1.848c.393 0 .756-.086 1.087-.258a1.74 1.74 0 00.737-.707V9.46h-.995c-1.332 0-2.042.46-2.127 1.379l-.01.156c0 .33.117.604.35.818.234.215.553.322.958.322zm10.115-1.912l1.842-6.187h2.856l-4.007 11.491-.221.524c-.596 1.3-1.579 1.949-2.948 1.949-.387 0-.78-.058-1.179-.175v-2.013l.405.01c.504 0 .878-.077 1.124-.23.252-.154.448-.408.589-.764l.314-.818-3.492-9.974h2.865l1.852 6.187zm9.654.092h-1.069v3.668h-2.662V4.036h2.662v3.741h.949l2.174-3.741h3.362l-3.261 4.734 3.565 5.213h-3.546l-2.174-3.668zm6.724-6.279h2.662v7.805h3.335V4.036h2.671v7.823h1.493l-.185 5.075h-2.478v-2.951h-7.498V4.036zm17.502 0h2.663v9.947h-2.663V7.842l-3.334 6.14h-2.672V4.037h2.672v6.132l3.334-6.132zm4.284 4.881c0-.986.19-1.866.571-2.638a4.183 4.183 0 011.64-1.793c.718-.423 1.55-.634 2.496-.634 1.345 0 2.441.41 3.289 1.232.853.821 1.329 1.936 1.427 3.346l.019.68c0 1.526-.427 2.752-1.281 3.678-.853.919-1.999 1.378-3.436 1.378-1.437 0-2.585-.46-3.445-1.379-.853-.919-1.28-2.169-1.28-3.75v-.12zm2.662.193c0 .944.178 1.667.534 2.17.356.496.866.745 1.529.745.645 0 1.149-.246 1.511-.736.362-.496.544-1.287.544-2.372 0-.925-.182-1.642-.544-2.15-.362-.51-.872-.764-1.529-.764-.651 0-1.155.254-1.511.763-.356.503-.534 1.284-.534 2.344zM245 13.983h-2.671v-3.825h-3.307v3.825h-2.663V4.036h2.663v3.99h3.307v-3.99H245v9.947zM53.627 39h-2.752V28.393l-3.285 1.019v-2.238l5.741-2.056h.296V39zm4.77-1.352c0-.438.146-.794.438-1.067.298-.272.67-.409 1.114-.409.45 0 .822.137 1.114.41.298.273.447.628.447 1.066 0 .432-.145.784-.438 1.057-.291.266-.666.4-1.123.4-.45 0-.822-.134-1.114-.4-.292-.273-.438-.625-.438-1.057zm5.827-5.465l.8-7.046h7.77v2.294H67.28l-.343 2.98a4.363 4.363 0 012.085-.523c1.32 0 2.355.41 3.104 1.228.749.82 1.124 1.965 1.124 3.438 0 .895-.19 1.697-.572 2.408a4.005 4.005 0 01-1.618 1.648c-.705.387-1.537.58-2.495.58a5.424 5.424 0 01-2.333-.504 4.207 4.207 0 01-1.704-1.438 3.922 3.922 0 01-.657-2.104h2.723c.057.577.257 1.028.6 1.352.349.317.803.476 1.361.476.623 0 1.102-.222 1.438-.667.337-.45.505-1.085.505-1.904 0-.787-.194-1.39-.581-1.809-.387-.419-.936-.628-1.647-.628-.654 0-1.184.171-1.59.514l-.267.247-2.19-.542zm20.119 1.085c0 1.917-.397 3.383-1.19 4.399-.794 1.016-1.955 1.523-3.485 1.523-1.51 0-2.666-.498-3.466-1.494-.8-.997-1.21-2.425-1.228-4.285v-2.552c0-1.936.4-3.405 1.2-4.408.806-1.003 1.964-1.505 3.475-1.505 1.51 0 2.666.499 3.466 1.495.8.99 1.209 2.415 1.228 4.275v2.552zm-2.752-2.8c0-1.148-.158-1.983-.476-2.503-.31-.527-.8-.79-1.466-.79-.648 0-1.127.25-1.438.752-.305.495-.466 1.272-.485 2.332v3.37c0 1.13.152 1.972.457 2.524.31.546.806.819 1.485.819.673 0 1.158-.264 1.457-.79.298-.527.454-1.333.466-2.419V30.47zm13.95 2.8c0 1.917-.397 3.383-1.19 4.399-.794 1.016-1.956 1.523-3.486 1.523-1.51 0-2.666-.498-3.466-1.494-.8-.997-1.209-2.425-1.228-4.285v-2.552c0-1.936.4-3.405 1.2-4.408.806-1.003 1.964-1.505 3.475-1.505 1.51 0 2.666.499 3.466 1.495.8.99 1.21 2.415 1.228 4.275v2.552zm-2.752-2.8c0-1.148-.16-1.983-.477-2.503-.31-.527-.8-.79-1.466-.79-.647 0-1.127.25-1.438.752-.304.495-.466 1.272-.485 2.332v3.37c0 1.13.152 1.972.457 2.524.31.546.806.819 1.485.819.673 0 1.159-.264 1.457-.79.298-.527.454-1.333.467-2.419V30.47zm4.875 7.18c0-.438.146-.794.438-1.067.298-.272.67-.409 1.114-.409.45 0 .822.137 1.114.41.298.273.447.628.447 1.066 0 .432-.146.784-.438 1.057-.292.266-.666.4-1.123.4-.451 0-.822-.134-1.114-.4-.292-.273-.438-.625-.438-1.057zm14.748-4.38c0 1.917-.396 3.383-1.19 4.399-.793 1.016-1.955 1.523-3.485 1.523-1.51 0-2.666-.498-3.466-1.494-.799-.997-1.209-2.425-1.228-4.285v-2.552c0-1.936.4-3.405 1.2-4.408.806-1.003 1.965-1.505 3.475-1.505 1.511 0 2.666.499 3.466 1.495.8.99 1.209 2.415 1.228 4.275v2.552zm-2.751-2.8c0-1.148-.159-1.983-.476-2.503-.311-.527-.8-.79-1.467-.79-.647 0-1.126.25-1.437.752-.305.495-.467 1.272-.486 2.332v3.37c0 1.13.152 1.972.457 2.524.311.546.806.819 1.485.819.673 0 1.159-.264 1.457-.79.298-.527.454-1.333.467-2.419V30.47zm13.949 2.8c0 1.917-.397 3.383-1.191 4.399-.793 1.016-1.955 1.523-3.484 1.523-1.511 0-2.666-.498-3.466-1.494-.8-.997-1.209-2.425-1.229-4.285v-2.552c0-1.936.4-3.405 1.2-4.408.806-1.003 1.965-1.505 3.476-1.505 1.51 0 2.666.499 3.465 1.495.8.99 1.21 2.415 1.229 4.275v2.552zm-2.752-2.8c0-1.148-.159-1.983-.476-2.503-.311-.527-.8-.79-1.466-.79-.648 0-1.127.25-1.438.752-.305.495-.467 1.272-.486 2.332v3.37c0 1.13.153 1.972.457 2.524.311.546.806.819 1.486.819.672 0 1.158-.264 1.456-.79.299-.527.454-1.333.467-2.419V30.47zm13.949 2.8c0 1.917-.397 3.383-1.19 4.399-.794 1.016-1.955 1.523-3.485 1.523-1.511 0-2.666-.498-3.466-1.494-.8-.997-1.209-2.425-1.228-4.285v-2.552c0-1.936.4-3.405 1.199-4.408.807-1.003 1.965-1.505 3.476-1.505s2.666.499 3.466 1.495c.799.99 1.209 2.415 1.228 4.275v2.552zm-2.752-2.8c0-1.148-.159-1.983-.476-2.503-.311-.527-.8-.79-1.466-.79-.648 0-1.127.25-1.438.752-.305.495-.467 1.272-.486 2.332v3.37c0 1.13.153 1.972.457 2.524.312.546.807.819 1.486.819.673 0 1.158-.264 1.457-.79.298-.527.453-1.333.466-2.419V30.47z" fill="#fff"/><path d="M149.595 39h-1.626v-8.165h-4.377V39h-1.634v-9.51h7.637V39zm2.18-4.843c0-.931.182-1.77.545-2.513.369-.745.879-1.319 1.529-1.723.656-.404 1.403-.607 2.241-.607 1.295 0 2.341.449 3.138 1.345.803.897 1.204 2.089 1.204 3.577v.115c0 .925-.179 1.757-.536 2.496a4.003 4.003 0 01-1.521 1.713c-.656.41-1.412.616-2.267.616-1.289 0-2.335-.449-3.138-1.345-.797-.896-1.195-2.083-1.195-3.56v-.114zm1.635.194c0 1.054.243 1.901.729 2.54.492.638 1.149.958 1.969.958.826 0 1.482-.323 1.969-.967.486-.65.729-1.559.729-2.725 0-1.043-.249-1.886-.747-2.531-.492-.65-1.148-.976-1.969-.976-.802 0-1.45.32-1.942.958-.492.64-.738 1.553-.738 2.743zm8.349 3.322l.563-.695c.633-.82.993-2.05 1.081-3.69l.149-3.798h6.126v8.183h1.222v4.122h-1.626V39h-6.636v2.795h-1.626l.009-4.122h.738zm1.925 0h4.368v-6.68h-2.927l-.096 2.268c-.1 1.892-.548 3.363-1.345 4.412zM178.573 39c-.094-.188-.17-.522-.229-1.002-.756.785-1.658 1.178-2.707 1.178-.937 0-1.708-.264-2.311-.791-.598-.533-.897-1.207-.897-2.022 0-.99.375-1.758 1.125-2.303.756-.55 1.817-.826 3.182-.826h1.582v-.747c0-.568-.17-1.02-.51-1.353-.34-.34-.841-.51-1.503-.51-.58 0-1.066.146-1.459.44-.392.292-.589.647-.589 1.063h-1.634c0-.475.167-.932.501-1.371.339-.445.796-.797 1.371-1.055a4.64 4.64 0 011.907-.387c1.096 0 1.954.276 2.575.827.621.545.943 1.298.967 2.258v4.377c0 .873.111 1.568.334 2.083V39h-1.705zm-2.698-1.24c.509 0 .993-.131 1.45-.395.457-.263.788-.606.993-1.028v-1.951h-1.275c-1.992 0-2.988.583-2.988 1.749 0 .51.17.908.51 1.195.34.287.776.43 1.31.43zM189.673 39h-1.634v-3.445a8.63 8.63 0 01-2.198.28c-1.189 0-2.097-.304-2.724-.913-.621-.61-.938-1.477-.95-2.602v-2.839h1.626v2.892c.03 1.418.712 2.127 2.048 2.127.75 0 1.483-.094 2.198-.281V29.49h1.634V39zm8.482 0c-.094-.188-.17-.522-.229-1.002-.756.785-1.658 1.178-2.707 1.178-.937 0-1.708-.264-2.311-.791-.598-.533-.897-1.207-.897-2.022 0-.99.375-1.758 1.125-2.303.756-.55 1.817-.826 3.182-.826h1.582v-.747c0-.568-.17-1.02-.51-1.353-.34-.34-.841-.51-1.503-.51-.58 0-1.066.146-1.459.44-.392.292-.589.647-.589 1.063h-1.634c0-.475.167-.932.501-1.371.339-.445.796-.797 1.371-1.055a4.64 4.64 0 011.907-.387c1.096 0 1.954.276 2.575.827.621.545.943 1.298.967 2.258v4.377c0 .873.111 1.568.334 2.083V39h-1.705zm-2.698-1.24c.509 0 .993-.131 1.45-.395.457-.263.788-.606.993-1.028v-1.951h-1.275c-1.992 0-2.988.583-2.988 1.749 0 .51.17.908.51 1.195.34.287.776.43 1.31.43z" fill="#DDF3FF"/><path d="M14.548 5.17L12 7.938 18.498 15l2.548-2.768.296.32a1.094 1.094 0 001.624 0l.702-.762c.443-.481.443-1.284 0-1.765L16.54 2.36a1.094 1.094 0 00-1.624 0l-.702.762a1.249 1.249 0 00.037 1.726l.296.32zm22.643 30.32l-8.685-8.019a.796.796 0 000-1.049c-.3-.3-.752-.3-1.053 0l-.037.038-10.678-9.93.94-.936L11.06 9 7 13.009l6.617 6.594.94-.937 9.889 10.716-.076.075c-.3.3-.3.75 0 1.05.15.15.339.224.527.224a.743.743 0 00.526-.225l.038-.037 8.008 8.692a2.607 2.607 0 003.76.075c1.053-1.012 1.015-2.735-.038-3.747zM10.24 23.055l2.76-2.54L5.96 14 3.2 16.54l-.32-.295c-.48-.441-1.28-.441-1.76 0l-.76.7a1.09 1.09 0 000 1.62l7.72 7.104c.48.441 1.28.441 1.76 0l.76-.7a1.09 1.09 0 000-1.62l-.36-.294z" fill="#fff"/></svg>