<svg width="121" height="121" fill="none" xmlns="http://www.w3.org/2000/svg"><path d="M111.686 0H8.314A8.268 8.268 0 000 8.314v103.457c0 4.543 3.686 8.315 8.314 8.315h103.457c4.543 0 8.315-3.686 8.315-8.315V8.314C120 3.686 116.314 0 111.686 0z" fill="#fff"/><path d="M101.829 16.629H18.172c-3.943 0-7.2 3.257-7.2 7.2 0 3.942 3.257 7.2 7.2 7.2h83.743c3.942 0 7.2-3.258 7.2-7.2-.086-4.029-3.258-7.2-7.286-7.2z" fill="#38B4FA"/><path d="M111.686 0H8.314A8.268 8.268 0 000 8.314h120A8.268 8.268 0 00111.686 0zm0 120H8.314C3.771 120 0 116.314 0 111.686h120a8.268 8.268 0 01-8.314 8.314z" fill="#E6F1FF"/><path d="M15.257 42.343a1.72 1.72 0 001.715-1.714 1.72 1.72 0 00-1.715-1.715h-2.571a1.72 1.72 0 00-1.714 1.715 1.72 1.72 0 001.714 1.714h2.571zm34.8 0a1.72 1.72 0 001.715-1.714 1.72 1.72 0 00-1.715-1.715H22.972a1.72 1.72 0 00-1.715 1.715 1.72 1.72 0 001.715 1.714h27.085zm-34.8 14.829a1.72 1.72 0 001.715-1.715 1.72 1.72 0 00-1.715-1.714h-2.571a1.72 1.72 0 00-1.714 1.714 1.72 1.72 0 001.714 1.715h2.571zm29.657 0a1.72 1.72 0 001.715-1.715 1.72 1.72 0 00-1.715-1.714H22.972a1.72 1.72 0 00-1.715 1.714 1.72 1.72 0 001.715 1.715h21.942zM15.257 72.429a1.72 1.72 0 001.715-1.715A1.72 1.72 0 0015.257 69h-2.571a1.72 1.72 0 00-1.714 1.714 1.72 1.72 0 001.714 1.715h2.571zm31.886 0a1.72 1.72 0 001.714-1.715A1.72 1.72 0 0047.143 69H22.972a1.72 1.72 0 00-1.715 1.714 1.72 1.72 0 001.715 1.715h24.171zm-31.886 15a1.72 1.72 0 001.715-1.715A1.72 1.72 0 0015.257 84h-2.571a1.72 1.72 0 00-1.714 1.714 1.72 1.72 0 001.714 1.715h2.571zm35.657 0a1.72 1.72 0 001.715-1.715A1.72 1.72 0 0050.914 84H22.972a1.72 1.72 0 00-1.715 1.714 1.72 1.72 0 001.715 1.715h27.942z" fill="#38B4FA"/><path d="M81.6 100.543c-.343 0-.6-.086-.857-.257-16.714-9.943-25.2-25.2-25.114-45.258 0-.685.428-1.285 1.028-1.542L81 42.343c.257-.086.429-.172.686-.172.257 0 .514.086.685.172l24.258 11.143c.6.257 1.028.857 1.028 1.543 0 20.057-8.4 35.314-25.114 45.257-.343.171-.6.257-.943.257z" fill="#FFC42C"/><path d="M81.6 43.886l24.343 11.142c0 19.629-8.143 34.2-24.343 43.8-16.114-9.6-24.343-24.171-24.257-43.8L81.6 43.886zm0-3.429a3.03 3.03 0 00-1.457.343L55.885 51.943c-1.2.514-1.97 1.8-1.97 3.086 0 20.742 8.742 36.514 25.97 46.714a3.09 3.09 0 001.715.514c.6 0 1.2-.171 1.714-.514 17.229-10.286 25.971-25.972 25.971-46.714 0-1.372-.771-2.572-1.971-3.086L82.971 40.8c-.343-.257-.857-.343-1.371-.343z" fill="#FFE871"/><path d="M76.886 80.4l-9.429-9.429c-.771-.771-.771-1.885 0-2.657l2.571-2.485a1.973 1.973 0 012.658 0l5.571 5.571 12.429-12.429c.771-.771 1.885-.771 2.657 0l2.485 2.572a1.973 1.973 0 010 2.657L79.543 80.486c-.772.6-1.886.6-2.657-.086z" fill="#fff"/></svg>