<svg width="141" height="140" fill="none" xmlns="http://www.w3.org/2000/svg"><g filter="url(#filter0_d_1636_3980)"><path d="M121.686 10H18.314A8.268 8.268 0 0010 18.314V42.4c0 4.543 3.686 8.314 8.314 8.314h103.457c4.543 0 8.315-3.685 8.315-8.314V18.314C130 13.686 126.314 10 121.686 10z" fill="#fff"/><path d="M61.943 27.657a1.72 1.72 0 001.714-1.714 1.72 1.72 0 00-1.714-1.714H21.915a1.72 1.72 0 00-1.715 1.714 1.72 1.72 0 001.715 1.714h40.028zm-40.885 6.515c0 .514.343.857.857.857h65.057c.514 0 .857-.343.857-.857 0-.515-.343-.857-.857-.857H21.915c-.514 0-.857.342-.857.857zM86.972 38.8H21.915c-.514 0-.857.343-.857.857 0 .515.343.857.857.857h65.057c.514 0 .857-.343.857-.857s-.343-.857-.857-.857z" fill="#38B4FA"/><path d="M88.257 101.2h-71.4c-3.771 0-6.857 3.086-6.857 6.857v15.086c0 3.771 3.086 6.857 6.857 6.857h71.314c3.772 0 6.858-3.086 6.858-6.857v-15.086c.085-3.771-3-6.857-6.772-6.857z" fill="#fff"/><path d="M46.857 113.714c.686 0 1.2-.514 1.2-1.2 0-.685-.514-1.2-1.2-1.2H18.486c-.686 0-1.2.515-1.2 1.2 0 .686.514 1.2 1.2 1.2h28.371zM17.8 118.343c0 .343.257.6.6.6h46.2c.343 0 .6-.257.6-.6 0-.343-.257-.6-.6-.6H18.486c-.343-.086-.686.257-.686.6zm46.8 3.257H18.486c-.343 0-.6.257-.6.6 0 .343.257.6.6.6h46.2c.343 0 .6-.257.6-.6-.086-.343-.343-.6-.686-.6z" fill="#38B4FA"/><path d="M66.914 65.286h-51A5.926 5.926 0 0010 71.2v9.514a5.926 5.926 0 005.914 5.915H67a5.926 5.926 0 005.914-5.915v-9.6c-.085-3.171-2.743-5.828-6-5.828z" fill="#fff"/><path d="M37.171 74.543a.859.859 0 00.858-.857.859.859 0 00-.858-.857H16.257a.859.859 0 00-.857.857c0 .514.428.857.857.857h20.914zm-21.342 3.343c0 .257.171.428.428.428h34.029c.257 0 .428-.171.428-.428s-.171-.429-.428-.429H16.257c-.257 0-.428.172-.428.429zm34.457 2.486H16.257c-.257 0-.428.171-.428.428 0 .258.171.429.428.429h34.029c.257 0 .428-.171.428-.429 0-.257-.171-.428-.428-.428z" fill="#38B4FA"/><path fill-rule="evenodd" clip-rule="evenodd" d="M98.372 55.514c11.657 0 21.171 9.429 21.171 21.172 0 11.657-9.514 21.171-21.171 21.171S77.2 88.343 77.2 76.686s9.429-21.172 21.172-21.172zM82.429 76.6c0 8.829 7.2 15.943 15.943 15.943 8.743 0 15.943-7.114 15.943-15.943a15.913 15.913 0 00-15.943-15.943A15.913 15.913 0 0082.429 76.6zm35.4 13.715l8.486 5.228c2.228 1.2 3.685 3.514 3.771 5.914 0 3.772-3.086 6.772-6.771 6.772-2.572 0-4.886-1.372-6-3.686l-5.229-8.486a22.85 22.85 0 005.743-5.743z" fill="#FFE871"/></g><defs><filter id="filter0_d_1636_3980" x="0" y="0" width="140.086" height="140" filterUnits="userSpaceOnUse" color-interpolation-filters="sRGB"><feFlood flood-opacity="0" result="BackgroundImageFix"/><feColorMatrix in="SourceAlpha" values="0 0 0 0 0 0 0 0 0 0 0 0 0 0 0 0 0 0 127 0" result="hardAlpha"/><feOffset/><feGaussianBlur stdDeviation="5"/><feComposite in2="hardAlpha" operator="out"/><feColorMatrix values="0 0 0 0 0 0 0 0 0 0 0 0 0 0 0 0 0 0 0.1 0"/><feBlend in2="BackgroundImageFix" result="effect1_dropShadow_1636_3980"/><feBlend in="SourceGraphic" in2="effect1_dropShadow_1636_3980" result="shape"/></filter></defs></svg>