<svg width="139" height="140" fill="none" xmlns="http://www.w3.org/2000/svg"><g filter="url(#filter0_d_1572_6479)"><path d="M48.342 99.035a1.72 1.72 0 001.715-1.715v-4.546a1.72 1.72 0 00-1.715-1.716 1.72 1.72 0 00-1.715 1.716v4.546a1.72 1.72 0 001.715 1.715zm12.438 2.402c.428 0 .857-.172 1.2-.515l3.174-3.173c.686-.687.686-1.716 0-2.402-.686-.686-1.715-.686-2.402 0L59.58 98.52c-.687.686-.687 1.715 0 2.401.343.343.772.515 1.2.515zm-25.734-.515c.343.343.772.515 1.201.515.429 0 .858-.172 1.201-.515.686-.686.686-1.715 0-2.401l-3.174-3.174c-.686-.686-1.715-.686-2.401 0-.687.686-.687 1.715 0 2.402l3.173 3.173zm40.229-84.146l-5.919 5.919 15.097 15.096 5.918-5.918.687.686c1.029 1.03 2.744 1.03 3.774 0l1.63-1.63c1.029-1.029 1.029-2.744 0-3.774L79.906 10.772c-1.03-1.03-2.745-1.03-3.774 0l-1.63 1.63c-1.03 1.03-1.03 2.659.086 3.688l.686.686z" fill="#FFC42C"/><path d="M126.569 85.826L106.755 67.47c.6-.686.6-1.716 0-2.402-.687-.686-1.716-.686-2.402 0l-.086.086-24.36-22.73 2.144-2.145-15.096-15.096-9.264 9.178 15.096 15.096 2.145-2.144L97.49 71.844l-.172.172c-.686.686-.686 1.715 0 2.402.343.343.772.514 1.201.514a1.69 1.69 0 001.2-.514l.087-.086 18.27 19.9c2.316 2.487 6.176 2.573 8.577.171 2.402-2.316 2.316-6.261-.085-8.577z" fill="#FFE871"/><path d="M64.467 57.863l5.919-5.919-15.097-15.182-5.918 5.919-.686-.686a2.692 2.692 0 00-3.775 0l-1.63 1.63c-1.029 1.029-1.029 2.744 0 3.773l16.555 16.555a2.692 2.692 0 003.775 0l1.63-1.63c1.029-1.029 1.029-2.745 0-3.774l-.773-.686z" fill="#FFC42C"/><path d="M79.907 116.276v-4.117c0-3.774-3.088-6.862-6.862-6.862H23.638c-3.774 0-6.862 3.088-6.862 6.862v.686h40.658a1.72 1.72 0 011.715 1.716 1.72 1.72 0 01-1.715 1.715H16.69a6.848 6.848 0 00-6.69 6.862c0 3.774 3.088 6.862 6.862 6.862h62.874c3.774 0 6.861-3.088 6.861-6.862 0-3.688-3.002-6.776-6.69-6.862zm-13.638 0a1.72 1.72 0 01-1.716-1.715 1.72 1.72 0 011.716-1.716 1.72 1.72 0 011.715 1.716 1.72 1.72 0 01-1.715 1.715z" fill="#fff"/></g><defs><filter id="filter0_d_1572_6479" x="0" y="0" width="138.414" height="140" filterUnits="userSpaceOnUse" color-interpolation-filters="sRGB"><feFlood flood-opacity="0" result="BackgroundImageFix"/><feColorMatrix in="SourceAlpha" values="0 0 0 0 0 0 0 0 0 0 0 0 0 0 0 0 0 0 127 0" result="hardAlpha"/><feOffset/><feGaussianBlur stdDeviation="5"/><feComposite in2="hardAlpha" operator="out"/><feColorMatrix values="0 0 0 0 0 0 0 0 0 0 0 0 0 0 0 0 0 0 0.15 0"/><feBlend in2="BackgroundImageFix" result="effect1_dropShadow_1572_6479"/><feBlend in="SourceGraphic" in2="effect1_dropShadow_1572_6479" result="shape"/></filter></defs></svg>