<svg width="138" height="136" fill="none" xmlns="http://www.w3.org/2000/svg"><g filter="url(#filter0_d_1572_6462)"><path d="M110.868 21.842h-95.21A7.615 7.615 0 008 29.5v22.184c0 4.185 3.395 7.658 7.658 7.658h95.289c4.185 0 7.658-3.395 7.658-7.658V29.5c-.079-4.263-3.473-7.658-7.737-7.658z" fill="#fff"/><path d="M55.842 38.106c.869 0 1.58-.71 1.58-1.58 0-.868-.711-1.578-1.58-1.578H18.974c-.869 0-1.579.71-1.579 1.579 0 .868.71 1.579 1.579 1.579h36.868zm-37.658 6c0 .473.316.79.79.79h59.92c.474 0 .79-.317.79-.79 0-.474-.316-.79-.79-.79h-59.92c-.474 0-.79.316-.79.79zm60.711 4.263H18.974c-.474 0-.79.315-.79.79 0 .473.316.789.79.789h59.92c.474 0 .79-.316.79-.79 0-.474-.316-.79-.79-.79zm4.263 39.789v-.316c0-.079 0-.079-.079-.158 0-.079 0-.079-.079-.158 0-.078-.079-.078-.079-.157 0-.08-.079-.08-.079-.158l-.079-.08c0-.078-.079-.078-.079-.157l-15-13.737-.079-.079c-.079 0-.079-.079-.157-.079-.08 0-.08-.079-.158-.079-.08 0-.08-.079-.158-.079-.08 0-.08 0-.158-.079H53.948L49.29 68.58c-.316-.237-.71-.395-1.106-.395h-7.973L35 63.448c-.317-.237-.711-.395-1.106-.395H15.579a7.244 7.244 0 00-7.263 7.263v39.789a7.244 7.244 0 007.263 7.264h7.342c.869 3 3.632 5.21 6.948 5.21h11.605c1.026 2.763 3.71 4.658 6.79 4.658h27.71a7.244 7.244 0 007.263-7.263l-.079-31.816zm-15-10.105l9.395 8.526h-5.29a4.077 4.077 0 01-4.105-4.105v-4.421zm-56.684 31.973v-39.79a4.077 4.077 0 014.105-4.104h17.763l2.21 2.052H29.87a7.244 7.244 0 00-7.264 7.264v38.684H15.58a4.077 4.077 0 01-4.105-4.106zm14.29 5.211v-39.79a4.077 4.077 0 014.105-4.105h17.763l1.658 1.5h-1.027A7.244 7.244 0 0041 80.105v39.237H29.87c-2.29 0-4.106-1.895-4.106-4.105zM80 119.895A4.077 4.077 0 0175.895 124H48.263a4.077 4.077 0 01-4.105-4.105v-39.79A4.077 4.077 0 0148.263 76H65.08v6.474a7.244 7.244 0 007.263 7.263h7.737v30.158H80z" fill="#38B4FA"/><path d="M68.158 78.053l9.395 8.526h-5.29a4.077 4.077 0 01-4.105-4.105v-4.421zm-56.684 31.974v-39.79a4.077 4.077 0 014.105-4.105h17.763l2.21 2.052h-5.684a7.244 7.244 0 00-7.263 7.264v38.684H15.58a4.077 4.077 0 01-4.105-4.105zm14.29 5.21v-39.79a4.077 4.077 0 014.104-4.105h17.764l1.657 1.5h-1.026A7.244 7.244 0 0041 80.106v39.236H29.868c-2.29 0-4.105-1.894-4.105-4.105zM80 119.895A4.077 4.077 0 0175.895 124H48.263a4.077 4.077 0 01-4.105-4.105v-39.79A4.077 4.077 0 0148.263 76H65.08v6.474a7.244 7.244 0 007.263 7.263h7.737v30.158H80z" fill="#FFE871"/></g><g filter="url(#filter1_d_1572_6462)"><path d="M126.508 19.82l-8.254-1.221-3.691-7.612a1.73 1.73 0 00-3.125 0l-3.692 7.612-8.254 1.22c-1.426.21-1.998 2-.965 3.025l5.972 5.925-1.41 8.366c-.243 1.445 1.252 2.552 2.529 1.869l7.382-3.95 7.382 3.95c.255.136.534.204.811.204 1.073 0 1.901-.984 1.718-2.073l-1.41-8.366 5.972-5.925c1.032-1.024.462-2.814-.965-3.025z" fill="#FFC42C"/></g><defs><filter id="filter0_d_1572_6462" x=".105" y="13.947" width="126.395" height="121.184" filterUnits="userSpaceOnUse" color-interpolation-filters="sRGB"><feFlood flood-opacity="0" result="BackgroundImageFix"/><feColorMatrix in="SourceAlpha" values="0 0 0 0 0 0 0 0 0 0 0 0 0 0 0 0 0 0 127 0" result="hardAlpha"/><feOffset/><feGaussianBlur stdDeviation="3.947"/><feComposite in2="hardAlpha" operator="out"/><feColorMatrix values="0 0 0 0 0 0 0 0 0 0 0 0 0 0 0 0 0 0 0.15 0"/><feBlend in2="BackgroundImageFix" result="effect1_dropShadow_1572_6462"/><feBlend in="SourceGraphic" in2="effect1_dropShadow_1572_6462" result="shape"/></filter><filter id="filter1_d_1572_6462" x="88" y="0" width="50" height="49.21" filterUnits="userSpaceOnUse" color-interpolation-filters="sRGB"><feFlood flood-opacity="0" result="BackgroundImageFix"/><feColorMatrix in="SourceAlpha" values="0 0 0 0 0 0 0 0 0 0 0 0 0 0 0 0 0 0 127 0" result="hardAlpha"/><feOffset/><feGaussianBlur stdDeviation="5"/><feComposite in2="hardAlpha" operator="out"/><feColorMatrix values="0 0 0 0 1 0 0 0 0 0.909804 0 0 0 0 0.443137 0 0 0 0.7 0"/><feBlend in2="BackgroundImageFix" result="effect1_dropShadow_1572_6462"/><feBlend in="SourceGraphic" in2="effect1_dropShadow_1572_6462" result="shape"/></filter></defs></svg>