<svg width="132" height="141" fill="none" xmlns="http://www.w3.org/2000/svg"><g filter="url(#filter0_d_1639_4014)"><path d="M18.319 128.286c-3.602 0-6.604-2.914-6.604-6.6V18.314c0-3.685 2.916-6.6 6.604-6.6h47.167c1.372 0 2.744.515 3.687 1.543l26.843 26.915c.943 1.028 1.543 2.314 1.543 3.685v77.914c0 3.6-2.916 6.601-6.603 6.601H18.319v-.086z" fill="#fff"/><path d="M99.36 43.857v-.514c-.086-1.629-.858-3.172-1.973-4.372L70.374 12.057C69.259 10.857 67.715 10.171 66 10H18.318A8.27 8.27 0 0010 18.314v103.457c0 4.543 3.688 8.315 8.319 8.315H91.04c4.546 0 8.319-3.686 8.319-8.315V43.857zM66 13.514c.772.086 1.372.429 1.972.943L94.9 41.371c.515.515.858 1.2.944 1.972H73.718c-4.202 0-7.632-3.429-7.632-7.629v-22.2H66zm29.93 108.172a4.884 4.884 0 01-4.889 4.885H18.32c-2.659 0-4.889-2.142-4.889-4.885V18.314c0-2.743 2.144-4.885 4.889-4.885h44.336v22.2c0 6.085 4.974 11.057 11.063 11.057H95.93v75z" fill="#38B4FA"/><path d="M25.265 48.914h-2.573a1.72 1.72 0 00-1.715 1.715 1.72 1.72 0 001.715 1.714h2.573a1.72 1.72 0 001.715-1.714 1.72 1.72 0 00-1.715-1.715zm7.718 3.429h27.1a1.72 1.72 0 001.715-1.714 1.72 1.72 0 00-1.715-1.715h-27.1a1.72 1.72 0 00-1.715 1.715 1.72 1.72 0 001.715 1.714zm-7.718 11.4h-2.573a1.72 1.72 0 00-1.715 1.714 1.72 1.72 0 001.715 1.715h2.573a1.72 1.72 0 001.715-1.715 1.72 1.72 0 00-1.715-1.714zm7.718 3.428h21.869a1.72 1.72 0 001.715-1.714 1.72 1.72 0 00-1.715-1.714H32.983a1.72 1.72 0 00-1.715 1.714 1.72 1.72 0 001.715 1.715zM25.265 79h-2.573a1.72 1.72 0 00-1.715 1.714 1.72 1.72 0 001.715 1.715h2.573a1.72 1.72 0 001.715-1.715A1.72 1.72 0 0025.265 79zm7.718 3.429h24.184a1.72 1.72 0 001.715-1.715A1.72 1.72 0 0057.167 79H32.983a1.72 1.72 0 00-1.715 1.714 1.72 1.72 0 001.715 1.715zM25.265 94h-2.573a1.72 1.72 0 00-1.715 1.714 1.72 1.72 0 001.715 1.715h2.573a1.72 1.72 0 001.715-1.715A1.72 1.72 0 0025.265 94zm37.391 1.714A1.72 1.72 0 0060.94 94H32.983a1.72 1.72 0 00-1.715 1.714 1.72 1.72 0 001.715 1.715H60.94a1.72 1.72 0 001.716-1.715zm8.318 20.486c-.172-.343-.429-.771-.943-1.028-.43-.258-1.201-.429-2.23.085l-1.372.686c-.086-.343-.086-.857-.086-1.371-.172-2.572-.429-5.572-2.83-5.658h-.172c-2.486 0-4.545 3.086-7.032 7.029l-.428.686c-.515.771-.258 1.885.514 2.4.772.514 1.887.257 2.401-.515l.43-.685c.6-1.029 2.229-3.686 3.43-4.8.085.6.17 1.371.17 1.885.087.772.087 1.543.258 2.058.429 2.4 1.973 2.742 2.573 2.828.772.086 1.286-.257 1.63-.428l.685-.343c.172.857.515 1.885 1.458 2.571.343.257.772.343 1.115.343.172 0 .343 0 .429-.086 1.029-.257 1.544-1.285 1.715-1.714l1.544-3.343c.771-1.886 1.543-3.6 2.572-5.228.086 2.228.172 3.857 1.544 4.457.343.171 1.286.428 2.316-.515a1.736 1.736 0 00.085-2.4c-.085-.171-.257-.257-.428-.342 0-.429-.086-.943-.086-1.372 0-1.028-.086-1.971-.258-2.743-.085-.343-.343-1.371-1.286-1.971-.857-.429-2.23-.429-3.344.943-1.887 2.314-3.088 5.057-4.203 7.714.086.343-.085.6-.171.857z" fill="#38B4FA"/></g><g filter="url(#filter1_d_1639_4014)"><path d="M104.591 108.743c1.029.086 1.972.171 2.916.171 4.373 0 7.804-1.285 10.376-3.857 5.06-5.143 4.031-13.285 3.945-13.628-.171-1.286-1.286-2.229-2.487-2.229h-8.575v-3.6c1.029-.343 1.8-1.286 1.8-2.4 0-1.371-1.114-2.571-2.572-2.571H86.668c-1.373 0-2.573 1.114-2.573 2.571 0 1.114.772 2.057 1.8 2.4v3.6H77.32c-1.286 0-2.316.943-2.487 2.229-.086.343-1.03 8.485 3.945 13.628 2.487 2.572 6.003 3.857 10.376 3.857.944 0 1.887-.085 2.916-.171h.086c1.2 1.029 2.401 1.886 3.516 2.314-.257 2.143-1.286 9.257-5.488 13.886h-3.516c-1.373 0-2.573 1.114-2.573 2.571 0 1.372 1.115 2.572 2.573 2.572h23.326c1.372 0 2.572-1.114 2.572-2.572 0-1.371-1.114-2.571-2.572-2.571h-3.516c-4.203-4.629-5.317-11.743-5.489-13.886a15.808 15.808 0 003.602-2.314c-.086 0 0 0 0 0zm12.263-14.4c-.085 2.057-.6 5.143-2.658 7.2-1.372 1.457-3.43 2.143-6.089 2.314.343-.6.6-1.2.858-1.885.857-2.143 1.286-4.63 1.457-7.543h6.432v-.086zm-34.389 7.2c-2.058-2.057-2.572-5.143-2.658-7.2h6.26c.258 2.914.686 5.4 1.458 7.543.257.686.6 1.286.858 1.886-2.487-.086-4.46-.858-5.918-2.229z" fill="#FFC42C"/></g><defs><filter id="filter0_d_1639_4014" x="0" y="0" width="109.36" height="140.086" filterUnits="userSpaceOnUse" color-interpolation-filters="sRGB"><feFlood flood-opacity="0" result="BackgroundImageFix"/><feColorMatrix in="SourceAlpha" values="0 0 0 0 0 0 0 0 0 0 0 0 0 0 0 0 0 0 127 0" result="hardAlpha"/><feOffset/><feGaussianBlur stdDeviation="5"/><feComposite in2="hardAlpha" operator="out"/><feColorMatrix values="0 0 0 0 0 0 0 0 0 0 0 0 0 0 0 0 0 0 0.1 0"/><feBlend in2="BackgroundImageFix" result="effect1_dropShadow_1639_4014"/><feBlend in="SourceGraphic" in2="effect1_dropShadow_1639_4014" result="shape"/></filter><filter id="filter1_d_1639_4014" x="64.707" y="70.629" width="67.264" height="69.457" filterUnits="userSpaceOnUse" color-interpolation-filters="sRGB"><feFlood flood-opacity="0" result="BackgroundImageFix"/><feColorMatrix in="SourceAlpha" values="0 0 0 0 0 0 0 0 0 0 0 0 0 0 0 0 0 0 127 0" result="hardAlpha"/><feOffset/><feGaussianBlur stdDeviation="5"/><feComposite in2="hardAlpha" operator="out"/><feColorMatrix values="0 0 0 0 1 0 0 0 0 0.909804 0 0 0 0 0.443137 0 0 0 0.7 0"/><feBlend in2="BackgroundImageFix" result="effect1_dropShadow_1639_4014"/><feBlend in="SourceGraphic" in2="effect1_dropShadow_1639_4014" result="shape"/></filter></defs></svg>